<?xml version="1.0" standalone="no"?>
<!DOCTYPE svg PUBLIC "-//W3C//DTD SVG 20010904//EN"
 "http://www.w3.org/TR/2001/REC-SVG-20010904/DTD/svg10.dtd">
<svg version="1.0" xmlns="http://www.w3.org/2000/svg"
 width="600.000000pt" height="400.000000pt" viewBox="0 0 600.000000 400.000000"
 preserveAspectRatio="xMidYMid meet">

<g transform="translate(0.000000,400.000000) scale(0.100000,-0.100000)"
fill="#000000" stroke="none">
<path d="M486 3041 c-3 -4 -8 -84 -10 -177 -3 -93 -3 -161 0 -151 5 16 27 17
284 17 l279 0 5 -37 c2 -21 2 47 0 150 -2 104 -6 193 -9 198 -8 12 -542 12
-549 0z m462 -98 c2 -15 10 -23 23 -23 15 0 19 -7 19 -35 0 -28 -4 -35 -19
-35 -13 0 -21 -8 -23 -22 -3 -23 -4 -23 -193 -23 l-190 0 -3 69 c-2 38 -1 75
2 83 5 11 42 13 193 11 186 -3 188 -3 191 -25z"/>
<path d="M573 2885 c0 -44 2 -61 4 -37 2 23 2 59 0 80 -2 20 -4 1 -4 -43z"/>
<path d="M933 2885 c0 -44 2 -61 4 -37 2 23 2 59 0 80 -2 20 -4 1 -4 -43z"/>
<path d="M461 2644 c0 -11 3 -14 6 -6 3 7 2 16 -1 19 -3 4 -6 -2 -5 -13z"/>
<path d="M608 2603 c84 -2 219 -2 300 0 81 1 12 3 -153 3 -165 0 -231 -2 -147
-3z"/>
<path d="M655 2483 c-3 -15 -11 -44 -17 -64 -6 -21 -7 -55 -3 -80 4 -24 9
-102 12 -174 4 -131 11 -155 44 -155 36 0 35 44 -2 53 -17 5 -19 15 -19 108 0
56 3 99 7 95 5 -4 6 -34 5 -67 -3 -37 1 -65 8 -74 16 -19 30 -10 30 20 0 15 7
26 20 30 27 9 50 -11 50 -44 1 -25 1 -25 15 -7 14 18 15 17 15 -22 0 -31 -4
-42 -15 -42 -9 0 -15 -9 -15 -25 0 -27 20 -34 38 -12 6 6 13 73 16 147 10 202
10 251 0 295 l-9 40 -87 3 -87 3 -6 -28z m165 -22 c0 -5 -34 -11 -75 -13 -71
-3 -84 0 -68 15 10 11 143 8 143 -2z m-1 -243 l-2 -53 -7 45 c-7 42 -5 60 6
60 2 0 3 -24 3 -52z"/>
<path d="M3688 2217 c-26 -12 -48 -25 -48 -28 0 -4 47 -27 104 -52 58 -25 223
-109 368 -187 304 -165 332 -174 389 -121 l34 31 -25 20 c-40 31 -504 262
-620 307 -138 54 -146 56 -202 30z"/>
<path d="M2985 2194 c-27 -2 -192 -13 -365 -25 -173 -11 -325 -24 -338 -27
-23 -7 -23 -8 19 -67 114 -161 159 -194 295 -215 38 -6 85 -15 104 -20 61 -16
291 -47 855 -115 303 -36 566 -68 585 -70 19 -2 62 -6 95 -10 33 -3 72 -8 86
-11 28 -5 101 24 96 39 -3 11 -388 235 -606 352 -168 91 -258 127 -374 151
-71 14 -354 25 -452 18z m1233 -419 c55 -17 87 -50 76 -78 -13 -36 -123 -47
-160 -16 -9 7 -14 30 -14 60 0 45 2 49 23 49 13 0 47 -7 75 -15z"/>
<path d="M1963 1886 l-63 -101 0 -87 c0 -49 1 -88 3 -88 11 0 148 50 174 63
56 29 57 65 3 163 -22 40 -40 83 -41 96 -2 63 -14 56 -76 -46z"/>
<path d="M4560 1530 l0 -80 31 0 31 0 -7 -52 c-4 -29 -8 -53 -9 -54 -30 -13
-114 -75 -138 -102 -94 -105 -132 -253 -94 -377 10 -36 15 -40 49 -43 24 -2
41 -10 47 -23 11 -19 -2 -19 -920 -19 -513 0 -930 3 -928 8 2 4 10 24 18 45
14 36 17 38 47 32 30 -5 32 -4 39 30 3 20 4 70 2 111 -9 137 -96 262 -228 327
-60 30 -72 32 -170 32 -99 0 -109 -2 -172 -33 -84 -41 -147 -103 -187 -184
-39 -78 -40 -106 -4 -110 26 -3 27 -5 25 -63 -2 -54 10 -102 43 -177 7 -17
-17 -18 -419 -18 l-426 0 6 25 6 25 -205 0 -206 0 6 -182 c6 -210 5 -209 96
-228 37 -7 577 -10 1832 -8 1875 4 1820 2 1877 48 24 18 25 25 32 175 l7 155
-30 39 c-40 50 -51 81 -51 142 0 57 17 101 54 143 24 27 26 36 26 127 0 90 2
98 20 104 38 12 50 -11 50 -95 l0 -77 54 0 c188 0 277 -235 135 -357 -43 -36
-111 -61 -150 -53 -18 3 -15 5 11 6 60 2 63 9 36 89 -13 40 -19 72 -15 72 5 0
9 5 9 11 0 8 -4 8 -15 -1 -11 -9 -17 -9 -28 2 -20 19 -17 47 5 54 17 5 17 7 5
17 -8 7 -20 29 -27 50 -6 20 -14 37 -16 37 -2 0 -3 -38 -2 -84 2 -46 5 -83 8
-81 3 2 12 0 20 -5 11 -7 10 -20 -7 -80 -17 -58 -21 -101 -22 -233 -2 -182 -5
-194 -76 -234 -87 -49 -48 -48 -1965 -48 l-1795 0 -57 23 c-97 39 -98 42 -98
273 l0 199 -201 0 -201 0 4 -25 5 -25 -163 0 -164 0 0 -390 0 -390 3000 0
3000 0 0 390 0 390 -475 0 c-261 0 -475 3 -475 8 1 18 29 42 51 42 40 0 49 14
60 82 12 80 -7 188 -47 256 -67 113 -188 191 -315 200 -64 4 -69 6 -69 28 0
12 -3 29 -6 37 -4 11 2 16 18 19 22 3 23 8 26 81 l3 77 -106 0 -105 0 0 -80z
m60 -12 c-1 -28 -2 -30 -11 -15 -6 10 -8 25 -5 33 9 24 16 16 16 -18z m120 2
c0 -10 -4 -22 -10 -25 -6 -4 -10 7 -10 25 0 18 4 29 10 25 6 -3 10 -15 10 -25z
m-2303 -376 c47 -27 88 -87 98 -145 14 -74 -32 -167 -100 -206 -36 -21 -87
-34 -59 -15 15 9 -21 132 -43 149 -15 12 -15 14 1 32 10 11 13 22 8 25 -12 7
-35 -18 -25 -27 3 -4 1 -7 -5 -7 -7 0 -12 7 -12 15 0 8 -5 15 -11 15 -5 0 -7
-4 -4 -10 4 -6 -23 -10 -74 -10 -54 0 -81 -4 -85 -12 -4 -7 -4 8 -1 35 16 158
174 239 312 161z m-117 -223 c0 -3 -9 -35 -20 -70 -10 -35 -17 -68 -14 -73 14
-22 -63 9 -100 41 -21 18 -56 84 -56 103 0 7 9 -7 20 -31 l20 -43 38 28 c20
15 47 36 60 45 21 16 52 16 52 0z m28 -158 c-10 -2 -26 -2 -35 0 -10 3 -2 5
17 5 19 0 27 -2 18 -5z"/>
<path d="M2204 1117 l-37 -33 67 -48 c38 -27 73 -45 82 -42 7 3 21 3 29 0 18
-7 20 -41 3 -47 -8 -2 -9 -8 -4 -13 5 -5 11 -4 13 4 3 8 26 -3 70 -34 71 -51
74 -50 93 16 5 19 6 38 1 43 -5 5 -40 7 -78 5 -89 -4 -94 14 -17 73 30 23 54
45 54 49 0 13 -60 60 -75 60 -8 0 -23 -29 -36 -70 -16 -48 -28 -70 -39 -70
-10 0 -23 23 -39 70 -14 41 -30 70 -38 70 -7 0 -30 -15 -49 -33z"/>
<path d="M4800 1075 c-13 -41 -21 -78 -17 -81 3 -4 36 15 71 42 l65 49 -34 33
c-19 17 -41 32 -48 32 -8 0 -23 -31 -37 -75z"/>
<path d="M4612 1097 c-9 -11 -10 -17 -2 -22 15 -9 23 -1 18 21 -3 15 -4 16
-16 1z"/>
<path d="M4754 976 c-8 -22 3 -33 18 -18 9 9 9 15 0 24 -9 9 -13 7 -18 -6z"/>
<path d="M4793 962 c0 -8 30 -34 66 -58 60 -40 67 -43 78 -27 13 17 29 81 22
87 -2 2 -40 5 -85 7 -63 3 -81 1 -81 -9z"/>
<path d="M4570 940 c0 -11 7 -37 15 -57 13 -30 17 -33 30 -23 9 8 15 30 15 56
0 42 -1 44 -30 44 -23 0 -30 -4 -30 -20z"/>
</g>
</svg>
