<?xml version="1.0" standalone="no"?>
<!DOCTYPE svg PUBLIC "-//W3C//DTD SVG 20010904//EN"
 "http://www.w3.org/TR/2001/REC-SVG-20010904/DTD/svg10.dtd">
<svg version="1.0" xmlns="http://www.w3.org/2000/svg"
 width="626.000000pt" height="626.000000pt" viewBox="0 0 626.000000 626.000000"
 preserveAspectRatio="xMidYMid meet">

<g transform="translate(0.000000,626.000000) scale(0.100000,-0.100000)"
fill="#000000" stroke="none">
<path d="M1985 4558 c22 -13 44 -33 50 -46 6 -13 18 -22 30 -21 12 0 15 3 7 6
-8 3 -28 20 -45 38 -18 19 -43 36 -57 40 -17 4 -12 -1 15 -17z"/>
<path d="M2713 4465 c-29 -24 -48 -47 -43 -50 6 -3 10 -2 10 3 0 4 23 27 51
50 29 23 48 42 43 41 -5 0 -33 -20 -61 -44z"/>
<path d="M2119 4473 c15 -30 24 -33 40 -16 12 14 12 15 0 11 -8 -3 -23 2 -33
11 -18 15 -18 15 -7 -6z"/>
<path d="M2213 4437 c14 -11 15 -16 5 -20 -9 -4 -9 -6 -1 -6 23 -2 23 18 1 29
-21 10 -22 10 -5 -3z"/>
<path d="M2396 4409 c-19 -15 -26 -30 -26 -54 0 -19 4 -36 10 -40 5 -3 6 -13
3 -22 -5 -12 -3 -14 7 -8 10 6 12 4 7 -8 -3 -9 -1 -19 5 -23 7 -5 8 -2 3 7 -4
8 2 4 14 -8 21 -22 21 -29 21 -320 l0 -298 31 32 31 31 -11 128 c-6 71 -16
183 -21 249 -6 66 -12 130 -15 141 -4 18 1 23 33 28 30 6 46 19 85 67 26 32
42 59 35 59 -7 0 -1 8 12 17 14 10 29 17 33 15 5 -1 5 2 2 8 -5 8 -12 7 -23
-3 -43 -37 -59 -39 -91 -7 -37 38 -103 42 -145 9z m70 -5 c-22 -8 -48 -22 -58
-31 -25 -22 -23 2 2 27 13 13 33 20 58 19 l37 0 -39 -15z m121 -61 c-15 -16
-17 -16 -17 -1 0 9 6 18 13 21 20 7 22 -2 4 -20z"/>
<path d="M2260 4410 c0 -5 5 -10 11 -10 5 0 7 5 4 10 -3 6 -8 10 -11 10 -2 0
-4 -4 -4 -10z"/>
<path d="M2290 4390 c-8 -5 -10 -10 -5 -10 6 0 17 5 25 10 8 5 11 10 5 10 -5
0 -17 -5 -25 -10z"/>
<path d="M2320 4373 c-13 -15 -12 -16 4 -10 10 4 22 7 27 7 6 0 7 5 4 10 -9
14 -18 12 -35 -7z"/>
<path d="M1157 3756 c-4 -9 -2 -16 4 -16 7 0 9 -34 5 -103 -3 -56 -1 -116 3
-132 7 -21 9 10 10 105 1 128 -8 184 -22 146z"/>
<path d="M902 3680 c-2 -47 -3 -143 -3 -215 0 -71 1 -274 1 -449 0 -176 2
-317 5 -314 3 3 6 188 5 412 l0 406 66 0 c45 0 70 5 80 15 14 13 13 15 -6 15
-12 0 -18 -4 -15 -10 4 -6 -18 -10 -59 -10 l-65 0 -4 118 c-2 105 -3 108 -5
32z"/>
<path d="M760 3360 l0 -390 -195 0 c-163 0 -195 -2 -195 -14 0 -8 5 -18 10
-21 6 -3 10 -24 10 -46 l0 -39 90 0 90 0 0 40 c0 22 4 40 10 40 5 0 8 -18 6
-40 l-4 -40 89 0 89 0 0 -196 c0 -123 4 -193 10 -189 11 7 9 1285 -2 1285 -5
0 -8 -175 -8 -390z m-122 -417 l-138 -4 0 -24 c0 -21 5 -25 33 -27 l32 -1 -32
-4 c-18 -2 -33 -10 -33 -16 0 -9 -2 -9 -8 0 -4 6 -28 13 -52 16 l-45 4 49 1
c39 2 47 5 42 18 -3 9 -6 19 -6 24 0 5 -10 11 -22 13 -13 2 54 4 147 3 162 0
164 -1 33 -3z m32 -23 c0 -5 -4 -10 -10 -10 -5 0 -10 5 -10 10 0 6 5 10 10 10
6 0 10 -4 10 -10z m-207 -7 c-7 -2 -19 -2 -25 0 -7 3 -2 5 12 5 14 0 19 -2 13
-5z m80 0 c-7 -2 -19 -2 -25 0 -7 3 -2 5 12 5 14 0 19 -2 13 -5z m207 -27 c8
-2 -11 -4 -43 -5 -32 0 -56 3 -53 7 4 7 57 6 96 -2z m-113 -2 c-3 -3 -12 -4
-19 -1 -8 3 -5 6 6 6 11 1 17 -2 13 -5z"/>
<path d="M1302 3678 c-2 -70 -4 -78 -21 -78 -13 0 -21 8 -23 23 -2 12 -6 -3
-9 -33 -2 -30 -1 -71 2 -90 l6 -35 3 40 c1 22 1 50 0 63 -1 16 4 22 19 22 16
0 20 -8 23 -42 3 -38 4 -39 8 -13 3 17 2 73 -1 125 l-5 95 -2 -77z"/>
<path d="M3180 3707 c0 -14 249 -84 277 -78 7 1 10 -4 7 -12 -3 -8 2 -22 11
-31 23 -22 16 -24 -167 -29 -136 -5 -157 -3 -163 11 -4 11 -9 12 -17 4 -14
-14 -5 -317 10 -352 11 -25 11 -25 11 8 l1 32 75 0 75 0 0 -55 c0 -30 5 -55
10 -55 6 0 10 26 10 59 l0 58 90 2 90 2 0 -70 c0 -69 1 -71 26 -71 25 0 25 0
19 68 -7 91 -25 333 -25 348 0 6 12 15 28 19 37 9 62 38 62 73 0 36 -25 60
-71 68 -21 3 -29 2 -21 -3 9 -7 6 -15 -14 -32 -21 -18 -38 -23 -76 -22 -27 0
-53 3 -57 5 -4 3 -41 14 -82 25 -41 11 -82 23 -92 27 -9 3 -17 4 -17 1z m390
-77 c0 -5 -10 -15 -22 -21 l-23 -12 20 21 c23 24 25 25 25 12z m-280 -139 c0
-58 -1 -59 -31 -65 -17 -3 -49 -6 -70 -6 l-39 0 0 59 0 60 53 4 c28 2 60 4 70
5 14 2 17 -7 17 -57z m208 -3 l3 -58 -91 0 -90 0 0 60 0 61 88 -3 87 -3 3 -57z
m-203 -91 c4 -13 5 -46 3 -73 l-3 -49 -72 -3 -73 -3 0 70 0 70 58 4 c31 2 63
4 69 5 7 1 15 -8 18 -21z m205 -47 l0 -70 -90 0 -90 0 0 70 0 70 90 0 90 0 0
-70z"/>
<path d="M1013 3673 c9 -2 23 -2 30 0 6 3 -1 5 -18 5 -16 0 -22 -2 -12 -5z"/>
<path d="M1020 3596 c0 -2 7 -6 15 -10 8 -3 15 -1 15 4 0 6 -7 10 -15 10 -8 0
-15 -2 -15 -4z"/>
<path d="M2633 3583 c9 -2 25 -2 35 0 9 3 1 5 -18 5 -19 0 -27 -2 -17 -5z"/>
<path d="M2732 3553 c-1 -27 -7 -43 -14 -43 -9 0 -12 -15 -10 -50 2 -29 0 -50
-6 -50 -6 0 -10 16 -10 36 0 40 -11 60 -13 23 -1 -13 0 -30 1 -38 1 -8 -4 -18
-12 -22 -10 -7 -10 -9 0 -9 6 0 12 -7 12 -16 0 -8 -4 -12 -10 -9 -5 3 -10 2
-10 -3 0 -9 23 -22 37 -22 3 0 2 11 -1 25 -4 14 -2 25 4 25 5 0 10 -8 10 -19
0 -20 27 -48 37 -37 3 3 2 6 -4 6 -27 0 -36 145 -10 152 8 2 10 17 6 48 l-6
45 -1 -42z"/>
<path d="M2902 3553 c-2 -36 -5 -43 -23 -43 -11 0 -17 -5 -14 -10 4 -6 10 -8
15 -5 5 3 11 1 14 -4 3 -5 15 -7 26 -4 17 5 18 7 6 17 -8 6 -17 29 -19 51 l-4
40 -1 -42z"/>
<path d="M3706 3583 c-3 -3 -6 -15 -6 -25 0 -19 -13 -20 -97 -2 -13 2 -23 1
-23 -4 0 -5 28 -13 63 -18 l62 -9 0 -55 0 -55 -65 1 c-36 1 -49 0 -30 -2 105
-12 100 -8 100 -74 l0 -59 -67 -4 -68 -3 68 -2 67 -2 0 -75 c0 -43 4 -75 10
-75 12 0 14 456 1 464 -4 3 -11 3 -15 -1z"/>
<path d="M2462 3553 c-16 -15 -21 -34 -25 -100 l-5 -81 34 -4 c19 -2 30 0 25
5 -4 4 -6 51 -3 103 3 52 2 94 -1 94 -2 0 -14 -8 -25 -17z"/>
<path d="M1281 3544 c0 -11 3 -14 6 -6 3 7 2 16 -1 19 -3 4 -6 -2 -5 -13z"/>
<path d="M1282 3490 c0 -14 2 -19 5 -12 2 6 2 18 0 25 -3 6 -5 1 -5 -13z"/>
<path d="M2658 3503 c6 -2 18 -2 25 0 6 3 1 5 -13 5 -14 0 -19 -2 -12 -5z"/>
<path d="M2798 3503 c7 -3 16 -2 19 1 4 3 -2 6 -13 5 -11 0 -14 -3 -6 -6z"/>
<path d="M1035 3458 c-4 -25 -5 -56 -2 -69 3 -17 5 -12 7 16 2 35 3 37 10 15
14 -43 11 -68 -7 -73 -15 -4 -14 -5 3 -6 19 -1 24 -16 53 -163 18 -90 43 -208
56 -263 13 -55 33 -149 45 -210 11 -60 30 -153 42 -206 l21 -97 51 -6 c28 -3
151 -6 274 -6 169 0 222 -3 222 -12 0 -7 2 -117 4 -245 l3 -233 -32 -20 c-29
-18 -49 -44 -45 -60 3 -15 54 5 80 31 16 17 34 28 40 24 6 -4 10 6 10 23 0 16
9 39 19 51 25 29 34 95 26 200 -5 62 -4 95 5 111 8 14 8 20 1 16 -7 -5 -11 10
-11 48 0 34 -5 56 -12 59 -7 3 -3 6 9 6 12 1 25 -4 28 -9 4 -6 11 -7 17 -4 13
8 532 6 646 -3 71 -5 82 -8 82 -24 0 -16 -8 -19 -45 -19 -42 0 -44 -1 -54 -37
-18 -65 -23 -63 114 -63 l125 0 0 -139 0 -140 -35 -37 c-19 -20 -35 -40 -35
-45 0 -4 59 -8 130 -8 148 0 156 6 85 59 l-45 34 0 208 0 208 30 0 c22 0 33
-6 40 -22 l9 -23 0 23 c1 18 6 23 24 20 16 -2 31 -21 55 -68 18 -35 42 -80 52
-98 28 -47 25 -58 -17 -60 -59 -4 -91 -44 -58 -72 21 -18 19 -24 -15 -37 -58
-22 -20 -80 44 -68 20 4 39 11 42 16 9 15 22 10 48 -16 14 -14 40 -28 58 -32
18 -3 46 -17 62 -31 37 -30 131 -72 162 -72 13 0 45 9 72 19 26 11 68 21 93
22 l44 4 5 -245 6 -245 -38 -35 c-61 -56 -55 -60 93 -60 146 0 144 -2 72 63
l-33 29 0 269 0 269 54 -6 c40 -5 59 -3 78 10 30 20 280 35 566 36 l172 0 0
-105 0 -104 -82 -4 -83 -3 88 -2 87 -2 0 -119 0 -119 -35 -26 c-19 -15 -35
-31 -35 -37 0 -5 52 -9 123 -9 l122 1 -44 41 -43 41 7 219 c4 120 10 220 14
223 4 2 53 7 109 11 l101 7 -4 -24 c-3 -13 -8 -39 -11 -56 -3 -18 -10 -33 -14
-33 -4 0 -10 -10 -14 -23 -3 -12 -15 -32 -26 -45 l-21 -22 23 -1 c22 -1 22 -1
-2 -8 l-25 -8 25 -5 c14 -3 -11 -7 -55 -8 -94 -3 -79 -7 66 -15 l106 -7 -1
-54 -1 -54 -32 0 c-23 0 -33 -5 -33 -16 0 -12 -8 -14 -45 -8 -37 5 -46 3 -51
-11 -15 -37 13 -43 208 -47 168 -3 189 -1 205 15 23 23 7 50 -33 57 -19 4 -25
8 -16 13 6 5 12 19 12 33 0 35 -51 34 -70 -1 -20 -36 -30 -31 -30 16 l0 42 68
-6 c44 -4 62 -3 52 3 -12 8 -9 10 13 10 15 0 27 5 27 12 0 6 3 8 7 5 3 -4 13
3 21 14 8 12 11 24 6 28 -5 3 -10 13 -12 21 -6 24 -30 46 -72 65 -22 10 -40
21 -40 26 0 4 14 19 30 32 17 14 30 30 30 36 0 6 4 11 10 11 5 0 7 7 3 15 -5
13 5 15 61 14 73 -2 71 -3 80 29 7 21 5 22 -50 22 -31 0 -177 -5 -323 -11
-637 -25 -1717 -57 -1723 -51 -9 10 -397 732 -521 972 -58 113 -113 214 -121
225 -15 20 -15 20 -17 -5 -1 -14 0 -36 1 -49 1 -17 -2 -21 -12 -16 -7 5 -3 -2
10 -14 24 -24 29 -36 10 -25 -7 3 0 -5 16 -18 25 -21 27 -27 17 -45 -9 -19 -8
-22 12 -26 l22 -4 -22 -2 c-26 -1 -28 -9 -11 -46 7 -17 20 -25 37 -26 24 -2
24 -2 4 -6 -13 -2 -23 -10 -23 -16 -1 -10 -22 18 -26 33 -9 44 -17 55 -41 57
-15 0 -21 -2 -14 -6 9 -6 8 -11 -3 -20 -8 -7 -19 -10 -25 -7 -5 3 -7 -3 -4
-14 3 -12 0 -20 -6 -20 -7 0 -10 4 -7 9 3 5 -1 14 -9 21 -8 7 -12 17 -8 23 3
5 1 7 -5 3 -6 -3 -13 -2 -17 4 -15 25 -24 7 -9 -21 8 -17 17 -39 19 -48 2 -9
10 -34 19 -54 l15 -37 70 0 c63 0 70 2 64 18 -5 16 -5 16 8 0 8 -9 29 -18 48
-20 47 -4 54 -28 8 -28 l-35 0 11 -35 c9 -31 14 -35 46 -36 36 -1 36 -1 6 -8
-16 -3 -28 -11 -26 -16 2 -6 6 -18 9 -27 6 -25 17 -22 46 13 l26 30 29 -62
c17 -33 36 -67 42 -75 9 -11 6 -14 -15 -14 -15 0 -25 4 -22 9 9 14 -78 81 -90
69 -2 -3 2 -19 8 -36 10 -26 18 -32 43 -33 30 -2 30 -2 3 -6 -16 -2 -28 -9
-28 -16 0 -8 -3 -8 -12 1 -7 7 -40 12 -79 12 l-67 0 21 -45 21 -45 67 0 c64 0
67 1 62 23 -4 20 -3 19 11 -4 13 -22 23 -27 61 -27 25 -1 45 1 45 4 0 3 -7 19
-16 35 -28 55 -7 42 25 -15 17 -31 31 -57 31 -60 0 -2 -64 -2 -142 0 -79 2
-408 8 -733 14 -634 11 -826 17 -837 29 -4 4 -30 106 -57 226 -126 557 -181
787 -195 806 -14 20 -15 19 -21 -23z m1695 -1114 c0 -31 -23 -28 -28 4 -2 15
2 22 12 22 11 0 16 -9 16 -26z m100 1 c0 -22 -4 -25 -40 -25 -36 0 -40 3 -40
25 0 23 4 25 40 25 36 0 40 -2 40 -25z m287 -221 c-3 -3 -12 -4 -19 -1 -8 3
-5 6 6 6 11 1 17 -2 13 -5z m24 -17 c-10 -9 -11 -8 -5 6 3 10 9 15 12 12 3 -3
0 -11 -7 -18z m48 -42 c0 -5 -6 1 -14 15 -8 14 -14 30 -14 35 0 6 6 -1 14 -15
8 -14 14 -29 14 -35z m-94 5 c3 -5 1 -10 -4 -10 -6 0 -11 5 -11 10 0 6 2 10 4
10 3 0 8 -4 11 -10z m2038 -97 c-7 -2 -21 -2 -30 0 -10 3 -4 5 12 5 17 0 24
-2 18 -5z m-106 -29 c-3 -3 -12 -4 -19 -1 -8 3 -5 6 6 6 11 1 17 -2 13 -5z
m86 -1 c-7 -2 -21 -2 -30 0 -10 3 -4 5 12 5 17 0 24 -2 18 -5z m-1798 -23 c3
-5 1 -10 -4 -10 -6 0 -11 5 -11 10 0 6 2 10 4 10 3 0 8 -4 11 -10z m1649 -154
c-1 -9 6 -16 15 -17 10 0 7 -4 -8 -10 -13 -5 -29 -8 -35 -5 -6 2 -2 5 9 6 l20
1 -20 9 c-17 7 -17 9 -2 9 19 1 23 16 7 24 -6 3 -5 4 2 3 7 -2 12 -11 12 -20z"/>
<path d="M2976 3418 c8 -97 14 -114 14 -38 0 59 10 64 12 6 1 -20 5 -36 10
-36 4 0 7 22 6 50 -2 38 -6 49 -18 47 -9 -1 -16 7 -18 20 -2 16 3 23 20 26 20
4 20 4 -5 6 l-27 1 6 -82z"/>
<path d="M2910 3430 c0 -22 3 -40 8 -40 4 0 6 18 4 40 -2 22 -6 40 -8 40 -2 0
-4 -18 -4 -40z"/>
<path d="M2778 3443 c7 -3 16 -2 19 1 4 3 -2 6 -13 5 -11 0 -14 -3 -6 -6z"/>
<path d="M1120 3429 c0 -5 5 -30 11 -54 8 -32 17 -45 33 -48 l21 -4 -21 -2
c-20 -1 -21 -4 -12 -40 10 -39 10 -39 70 -46 32 -4 61 -5 63 -3 3 2 -1 21 -7
41 -9 28 -18 39 -37 43 -45 10 -47 12 -13 13 33 1 33 2 27 34 -17 74 -20 77
-80 77 -32 0 -55 -4 -55 -11z"/>
<path d="M1265 3378 l11 -53 57 -3 56 -3 -14 48 c-8 26 -15 51 -15 56 0 4 -24
7 -54 7 l-53 0 12 -52z"/>
<path d="M1386 3373 c8 -25 16 -48 18 -51 9 -8 136 -15 136 -7 0 20 -25 91
-35 97 -5 4 -38 8 -72 8 l-61 0 14 -47z"/>
<path d="M1530 3404 c0 -19 26 -90 35 -96 5 -4 36 -8 68 -8 45 0 57 3 57 16 0
8 -4 13 -8 10 -5 -3 -24 10 -42 29 -29 30 -31 35 -14 36 10 1 1 5 -21 10 -50
10 -75 11 -75 3z"/>
<path d="M1710 3390 c0 -3 6 -25 14 -50 l13 -45 69 -7 c38 -4 69 -6 70 -5 1 1
-5 25 -14 52 l-17 50 -68 5 c-37 3 -67 3 -67 0z"/>
<path d="M4883 3390 c-12 -5 -27 -19 -34 -31 -10 -20 -8 -25 21 -49 l33 -27
-8 -229 c-6 -206 -5 -231 9 -243 15 -13 16 5 14 232 -2 189 0 247 9 247 15 0
33 32 33 58 0 19 -29 52 -46 51 -5 0 -19 -4 -31 -9z"/>
<path d="M4142 3378 c-18 -18 -14 -52 8 -66 18 -11 20 -23 20 -117 0 -63 4
-105 10 -105 6 0 10 42 10 105 0 58 4 105 8 105 17 0 33 50 22 71 -12 22 -59
26 -78 7z m29 -46 c-7 -2 -18 1 -23 6 -8 8 -4 9 13 5 13 -4 18 -8 10 -11z"/>
<path d="M1877 3331 c16 -48 17 -49 66 -55 27 -4 52 -5 54 -2 3 3 -3 27 -12
55 l-17 51 -53 0 -53 0 15 -49z"/>
<path d="M1990 3367 c0 -2 7 -25 16 -51 15 -44 18 -47 43 -41 14 3 34 14 44
24 15 15 16 22 6 44 -11 24 -18 27 -61 27 -26 0 -48 -1 -48 -3z"/>
<path d="M2906 3362 c6 -4 14 -14 17 -22 4 -12 6 -12 6 2 1 9 7 19 14 21 6 3
-1 6 -18 6 -16 0 -25 -3 -19 -7z"/>
<path d="M2110 3352 c0 -14 11 -21 26 -15 21 8 17 23 -6 23 -11 0 -20 -4 -20
-8z"/>
<path d="M2168 3324 c-42 -27 -42 -27 -28 -55 14 -25 110 -29 110 -4 0 22 -28
85 -37 84 -4 0 -25 -11 -45 -25z"/>
<path d="M2240 3347 c0 -2 7 -24 16 -49 13 -38 20 -47 46 -52 35 -7 108 -8
108 -2 0 2 -9 24 -19 49 -18 41 -22 44 -66 51 -52 7 -85 8 -85 3z"/>
<path d="M2402 3329 c3 -8 14 -33 23 -56 l17 -43 59 0 c66 0 69 5 47 67 -12
32 -14 33 -64 33 -29 0 -60 3 -70 7 -13 5 -16 3 -12 -8z"/>
<path d="M2560 3311 c0 -5 7 -25 15 -45 12 -28 21 -36 41 -36 20 0 25 4 20 16
-3 9 -6 20 -6 25 0 6 -4 7 -10 4 -6 -4 -7 1 -3 11 4 12 3 15 -5 10 -8 -5 -10
-2 -6 8 5 12 0 16 -20 16 -14 0 -26 -4 -26 -9z"/>
<path d="M2630 3312 c1 -4 7 -18 15 -32 l14 -25 -1 27 c-1 15 -8 30 -15 32 -7
3 -13 2 -13 -2z"/>
<path d="M1292 3271 c9 -37 12 -39 61 -44 28 -4 53 -5 55 -3 2 2 -2 22 -8 45
l-11 41 -53 0 -54 0 10 -39z"/>
<path d="M1414 3274 c4 -21 11 -42 14 -45 10 -9 142 -21 142 -13 0 4 -5 23
-11 44 l-11 37 -61 2 c-33 1 -65 5 -70 8 -6 4 -7 -9 -3 -33z"/>
<path d="M2730 3304 c1 -14 29 -60 30 -49 0 6 5 3 10 -5 6 -9 10 -10 10 -3 0
7 -8 16 -17 22 -10 5 -15 13 -10 17 4 4 16 -1 27 -11 11 -10 20 -14 20 -9 1 5
7 -2 14 -16 8 -14 12 -28 10 -32 -3 -5 5 -8 16 -8 17 0 21 4 15 18 -4 9 -12
29 -17 45 -6 15 -17 27 -28 27 -10 0 -32 3 -49 6 -17 4 -31 3 -31 -2z"/>
<path d="M2859 3258 c17 -41 20 -43 69 -48 29 -3 52 -5 52 -4 0 1 -9 21 -20
46 -19 43 -20 44 -69 47 l-51 2 19 -43z"/>
<path d="M1573 3250 l11 -40 51 0 c27 0 60 -3 72 -6 21 -6 21 -5 9 38 l-13 43
-70 3 -70 3 10 -41z"/>
<path d="M2075 3267 c-16 -12 -31 -21 -32 -19 -2 1 -8 2 -13 2 -7 0 -7 -7 0
-21 6 -11 9 -25 7 -32 -2 -7 -10 4 -17 25 -13 34 -16 37 -64 40 -28 2 -52 3
-54 2 -9 -6 29 -73 45 -77 10 -3 62 -8 115 -12 l98 -7 -16 39 c-9 21 -21 41
-28 45 -8 6 -8 8 1 8 7 0 10 7 7 15 -8 20 -13 19 -49 -8z"/>
<path d="M2960 3286 c0 -2 8 -23 19 -46 19 -42 19 -42 75 -45 31 -1 56 -1 56
1 0 2 -10 24 -22 49 -22 45 -22 45 -75 45 -29 0 -53 -2 -53 -4z"/>
<path d="M1750 3269 c0 -4 9 -10 20 -14 11 -3 29 -18 40 -32 14 -17 32 -27 60
-30 l39 -5 -9 33 c-5 18 -13 36 -17 40 -11 10 -133 17 -133 8z"/>
<path d="M2663 3240 c2 -10 17 -15 43 -16 37 -1 38 -1 4 3 -19 3 -39 10 -43
16 -6 8 -7 7 -4 -3z"/>
<path d="M2796 3235 c4 -8 10 -15 15 -15 4 0 6 7 3 15 -4 8 -10 15 -15 15 -4
0 -6 -7 -3 -15z"/>
<path d="M2155 3213 c9 -39 13 -41 79 -49 56 -7 59 -6 51 12 -4 10 -10 29 -12
42 -5 20 -11 22 -65 22 l-60 0 7 -27z"/>
<path d="M2280 3231 c0 -3 5 -19 12 -37 11 -30 15 -32 75 -39 36 -4 67 -5 69
-2 3 3 -1 21 -10 40 -14 35 -15 35 -80 39 -36 1 -66 1 -66 -1z"/>
<path d="M2768 3223 c7 -3 16 -2 19 1 4 3 -2 6 -13 5 -11 0 -14 -3 -6 -6z"/>
<path d="M2450 3210 c0 -26 25 -60 44 -59 17 1 18 2 4 6 -23 6 -23 15 1 33 11
7 18 17 15 22 -7 11 -64 10 -64 -2z"/>
<path d="M2600 3201 c0 -4 11 -6 25 -3 14 2 25 6 25 8 0 2 -11 4 -25 4 -14 0
-25 -4 -25 -9z"/>
<path d="M1179 3168 c6 -32 9 -33 66 -39 l60 -6 -59 -1 c-42 -2 -57 -5 -53
-15 2 -7 10 -38 17 -70 11 -54 13 -57 43 -58 30 -2 31 -2 5 -6 -30 -5 -34 -21
-19 -73 6 -23 13 -25 74 -30 37 -3 67 -4 67 -2 0 2 -5 23 -11 47 -9 36 -16 45
-38 48 l-26 4 26 2 c26 1 27 2 17 41 -6 22 -15 40 -20 40 -5 0 -7 4 -4 9 3 5
-2 38 -11 75 l-16 66 -62 0 -62 0 6 -32z m68 -114 c-3 -3 -12 -4 -19 -1 -8 3
-5 6 6 6 11 1 17 -2 13 -5z"/>
<path d="M2698 3193 c12 -2 32 -2 45 0 12 2 2 4 -23 4 -25 0 -35 -2 -22 -4z"/>
<path d="M2785 3190 c3 -5 10 -10 16 -10 5 0 9 5 9 10 0 6 -7 10 -16 10 -8 0
-12 -4 -9 -10z"/>
<path d="M2820 3190 c0 -5 14 -10 32 -10 35 0 30 12 -7 17 -14 2 -25 -1 -25
-7z"/>
<path d="M1321 3158 c5 -18 9 -34 9 -35 0 -2 25 -3 55 -3 55 0 55 0 49 28 -10
41 -11 42 -69 42 l-54 0 10 -32z"/>
<path d="M1440 3177 c0 -4 7 -34 17 -67 13 -49 20 -60 37 -60 12 0 44 -3 72
-6 51 -6 52 -6 47 19 -5 28 -25 36 -88 38 l-40 1 35 9 c19 5 45 7 57 4 17 -4
20 -1 16 15 -4 16 -9 18 -27 9 -19 -9 -19 -9 -3 4 31 26 19 35 -53 39 -39 2
-70 0 -70 -5z m130 -103 c0 -8 -4 -12 -10 -9 -5 3 -10 10 -10 16 0 5 5 9 10 9
6 0 10 -7 10 -16z m-30 -10 c0 -3 -13 -3 -29 -2 -16 1 -28 5 -26 9 5 6 55 0
55 -7z"/>
<path d="M2895 3180 c3 -5 29 -10 56 -10 31 0 48 4 44 10 -3 6 -29 10 -56 10
-31 0 -48 -4 -44 -10z"/>
<path d="M3025 3170 c28 -12 95 -12 95 0 0 6 -25 10 -57 9 -42 0 -52 -3 -38
-9z"/>
<path d="M1600 3160 c0 -5 7 -10 15 -10 8 0 15 -5 15 -11 0 -5 -5 -7 -11 -3
-7 4 -10 1 -7 -7 7 -22 38 -23 54 -2 11 14 13 14 8 2 -4 -12 3 -18 27 -23 53
-10 61 -8 50 13 -6 10 -8 21 -5 24 3 3 1 8 -5 12 -7 4 -11 -3 -11 -18 0 -20
-4 -23 -24 -20 -28 6 -28 33 0 44 12 5 -5 8 -43 8 -36 1 -63 -3 -63 -9z m62
-20 c-12 -11 -23 -20 -26 -20 -2 0 -2 9 1 20 3 12 14 20 26 20 21 0 21 0 -1
-20z"/>
<path d="M1853 3153 c9 -2 17 -13 17 -23 0 -11 -8 -24 -17 -29 -14 -8 -6 -10
35 -11 36 0 52 4 52 13 0 26 -26 45 -65 50 -22 2 -32 2 -22 0z"/>
<path d="M1700 3140 c0 -5 5 -10 11 -10 5 0 7 5 4 10 -3 6 -8 10 -11 10 -2 0
-4 -4 -4 -10z"/>
<path d="M1940 3147 c0 -2 5 -18 11 -36 10 -30 13 -31 65 -31 l54 0 -13 33
c-12 30 -17 32 -65 35 -29 2 -52 1 -52 -1z"/>
<path d="M2060 3142 c0 -1 7 -18 14 -37 14 -34 17 -35 67 -35 45 0 50 2 44 18
-4 9 -9 24 -12 34 -4 12 -19 17 -59 20 -30 1 -54 2 -54 0z"/>
<path d="M2750 3144 c0 -4 9 -22 21 -40 18 -30 26 -34 63 -34 24 0 71 -3 105
-6 l62 -7 -21 37 c-12 20 -25 38 -29 40 -13 7 -201 17 -201 10z"/>
<path d="M2180 3137 c0 -13 23 -67 28 -67 4 0 31 -3 61 -7 l54 -6 -7 29 c-4
16 -10 32 -14 36 -8 7 -122 21 -122 15z"/>
<path d="M2978 3121 c3 -9 11 -22 18 -28 7 -7 14 -17 16 -23 2 -6 40 -13 86
-17 l83 -6 -17 36 c-19 40 -28 43 -136 50 -48 3 -55 1 -50 -12z"/>
<path d="M863 3115 c0 -8 4 -15 9 -15 4 0 8 7 8 15 0 8 -4 15 -8 15 -5 0 -9
-7 -9 -15z"/>
<path d="M1043 3065 c0 -38 2 -53 4 -32 2 20 2 52 0 70 -2 17 -4 1 -4 -38z"/>
<path d="M2324 3104 c10 -41 15 -44 90 -51 l67 -6 -17 37 c-14 27 -24 36 -43
36 -14 0 -44 3 -65 7 -39 6 -39 6 -32 -23z"/>
<path d="M3175 3091 c20 -40 22 -41 110 -48 l77 -6 -23 36 c-26 38 -49 47
-131 47 l-49 0 16 -29z"/>
<path d="M1340 3095 c0 -9 5 -36 11 -61 13 -49 34 -64 90 -64 30 0 33 7 23 47
-4 15 -15 23 -38 26 l-31 4 32 1 c29 2 31 4 24 30 -7 24 -12 27 -59 30 -42 2
-52 0 -52 -13z"/>
<path d="M3371 3075 c12 -19 24 -35 27 -35 4 -1 23 -3 44 -6 30 -5 42 -1 70
24 18 17 31 32 28 35 -3 2 -46 7 -97 10 l-92 7 20 -35z"/>
<path d="M1630 3064 c0 -25 1 -26 70 -22 39 2 70 -1 70 -6 0 -5 2 -7 5 -5 2 3
2 15 -2 27 -4 15 -13 22 -30 22 -13 0 -22 -4 -18 -10 3 -5 12 -7 20 -3 8 3 15
1 15 -5 0 -5 -20 -10 -45 -10 -35 -1 -45 2 -45 15 0 12 3 13 14 4 9 -7 17 -8
20 -3 7 12 -17 22 -50 22 -19 0 -24 -5 -24 -26z"/>
<path d="M1810 3060 c0 -12 10 -24 23 -30 17 -7 18 -9 4 -9 -14 -1 -16 -7 -11
-28 10 -41 15 -44 90 -53 l69 -8 -70 1 c-69 2 -70 2 -67 -22 9 -63 16 -68 97
-76 42 -4 79 -5 82 -2 2 3 -1 15 -7 27 -6 11 -10 29 -7 38 2 10 9 1 17 -25 13
-41 13 -41 67 -45 l54 -3 -6 30 -5 30 15 -32 c14 -31 18 -33 65 -33 28 0 50 3
50 6 0 19 -24 84 -32 84 -4 0 -8 9 -8 20 0 10 -8 44 -17 75 l-17 55 -53 0
c-29 0 -53 -4 -53 -9 0 -22 13 -41 29 -42 10 0 11 -2 4 -6 -8 -3 -11 -15 -8
-31 3 -15 -5 0 -19 33 l-24 60 -54 3 -55 3 23 -68 23 -68 63 -2 c35 -1 79 -3
98 -4 l35 -2 -32 -4 c-22 -3 -33 -10 -33 -21 0 -14 -1 -14 -12 1 -9 11 -31 17
-72 19 l-59 3 -11 40 c-11 38 -14 40 -56 46 l-45 6 42 1 42 2 -10 30 c-11 29
-12 30 -80 30 -63 0 -69 -2 -69 -20z"/>
<path d="M3828 3073 c12 -2 22 -9 22 -14 0 -6 -5 -7 -12 -3 -7 4 -8 3 -4 -4 4
-7 2 -12 -4 -12 -6 0 -8 -5 -4 -11 4 -8 9 -7 14 2 6 9 12 9 25 -4 25 -26 26
-20 4 18 -14 24 -28 35 -42 34 -21 -2 -21 -2 1 -6z"/>
<path d="M3881 3057 c6 -10 14 -15 19 -12 6 3 7 0 4 -8 -8 -21 1 -24 94 -32
l84 -7 -18 28 c-10 16 -20 31 -22 34 -2 3 -41 7 -87 10 -77 5 -82 4 -74 -13z"/>
<path d="M2625 3060 c-3 -5 -1 -10 4 -10 6 0 11 5 11 10 0 6 -2 10 -4 10 -3 0
-8 -4 -11 -10z"/>
<path d="M2214 3037 c3 -12 6 -25 6 -29 0 -5 15 -9 33 -9 30 -2 30 -2 5 -6
-16 -2 -28 -6 -28 -7 0 -2 5 -17 11 -35 11 -30 13 -31 70 -31 63 0 66 3 47 47
-6 15 -13 37 -15 48 -5 29 -12 32 -77 38 -56 6 -58 5 -52 -16z"/>
<path d="M2354 3025 c3 -11 6 -23 6 -27 0 -5 10 -9 23 -9 16 -1 18 -2 4 -6
-13 -3 -16 -11 -11 -31 4 -15 10 -31 14 -37 4 -5 13 -31 19 -56 l13 -46 71 -6
c40 -3 74 -3 76 -1 2 2 -4 24 -13 49 -15 37 -22 45 -44 46 -24 2 -24 2 -4 6
25 5 27 12 10 48 -7 17 -20 25 -37 26 -25 2 -25 2 -3 6 16 3 22 9 18 20 -3 8
-6 18 -6 23 0 5 -32 10 -71 12 -66 3 -70 2 -65 -17z"/>
<path d="M2814 3021 c15 -28 18 -29 116 -36 56 -4 104 -5 107 -2 3 3 -3 19
-13 36 l-18 31 -103 0 -104 0 15 -29z"/>
<path d="M3030 3032 c0 -6 8 -19 18 -31 14 -18 32 -22 101 -27 l84 -6 -19 33
c-20 34 -21 34 -102 37 -46 2 -82 -1 -82 -6z"/>
<path d="M1480 3015 c0 -9 4 -14 9 -11 5 4 7 -3 4 -14 -4 -14 0 -20 11 -20 17
0 22 -16 6 -22 -6 -2 -5 -18 1 -45 l11 -41 70 -7 c38 -4 71 -5 74 -2 3 3 0 23
-7 45 -12 42 -31 52 -101 52 -18 0 -27 4 -23 11 5 7 25 8 56 4 34 -5 49 -3 49
5 0 6 -4 9 -8 6 -4 -2 -8 7 -7 22 0 26 -2 26 -72 30 -63 3 -73 1 -73 -13z"/>
<path d="M3227 3001 c16 -26 23 -29 92 -35 41 -3 76 -4 79 -1 3 2 -2 15 -11
28 -17 27 -54 37 -128 37 l-48 0 16 -29z"/>
<path d="M4446 2998 l-17 -28 42 0 c40 0 41 1 26 18 -10 10 -17 23 -17 27 0 5
12 -6 28 -24 24 -29 32 -32 70 -29 l42 3 -22 33 c-22 30 -26 32 -79 31 -51 -2
-58 -5 -73 -31z"/>
<path d="M1651 2992 c10 -28 14 -30 77 -34 37 -3 69 -4 71 -2 2 2 0 15 -3 30
-5 20 -10 24 -19 15 -6 -6 -22 -11 -35 -11 -14 0 -21 -4 -17 -11 5 -7 -5 -9
-26 -7 -22 2 -34 8 -34 18 0 11 12 15 47 15 71 0 66 12 -7 14 l-64 2 10 -29z"/>
<path d="M3416 3006 c3 -8 12 -12 20 -9 21 8 17 23 -6 23 -13 0 -18 -5 -14
-14z"/>
<path d="M4620 2991 c17 -25 30 -31 76 -37 30 -3 57 -4 60 -1 3 3 -4 19 -17
36 -21 29 -27 31 -82 31 l-58 0 21 -29z"/>
<path d="M1670 2991 c0 -5 9 -7 20 -4 11 3 20 7 20 9 0 2 -9 4 -20 4 -11 0
-20 -4 -20 -9z"/>
<path d="M2526 2988 c3 -4 11 -5 19 -1 21 7 19 12 -4 10 -11 0 -18 -5 -15 -9z"/>
<path d="M1043 2945 c0 -22 2 -30 4 -17 2 12 2 30 0 40 -3 9 -5 -1 -4 -23z"/>
<path d="M2850 2965 c0 -3 7 -19 15 -34 14 -28 18 -29 115 -36 56 -4 104 -5
107 -2 3 4 -3 21 -14 39 l-19 33 -102 3 c-56 1 -102 0 -102 -3z"/>
<path d="M4195 2960 c5 -9 43 -6 52 3 4 4 -7 7 -24 5 -18 -1 -30 -5 -28 -8z"/>
<path d="M1380 2947 c0 -5 5 -27 12 -48 11 -38 12 -39 60 -39 53 0 56 5 37 59
-8 24 -17 31 -37 32 -15 1 -37 3 -49 4 -13 1 -23 -2 -23 -8z"/>
<path d="M3091 2925 c15 -26 28 -35 47 -36 15 0 53 -2 85 -5 31 -3 57 -3 57 0
0 3 -9 21 -21 40 l-21 36 -84 0 -83 0 20 -35z"/>
<path d="M3260 2952 c0 -9 35 -62 41 -62 3 0 23 13 43 29 l36 29 -60 4 c-33 1
-60 1 -60 0z"/>
<path d="M4260 2950 c0 -5 5 -10 10 -10 6 0 10 -4 10 -10 0 -5 -9 -10 -21 -10
-13 0 -18 4 -13 12 4 7 3 8 -4 4 -7 -4 -12 -2 -12 4 0 6 -5 8 -10 5 -24 -15
12 -34 65 -34 51 0 54 2 42 20 -6 10 -18 21 -26 24 -10 4 -9 0 4 -15 10 -11
13 -20 7 -20 -7 0 -17 9 -24 20 -14 21 -28 27 -28 10z"/>
<path d="M4407 2945 c-36 -36 -22 -45 70 -45 l86 0 -19 23 c-10 12 -20 23 -20
25 -1 2 -24 6 -51 9 -38 4 -54 1 -66 -12z"/>
<path d="M4561 2921 c20 -28 28 -31 73 -31 l51 0 -27 26 c-18 18 -40 28 -73
32 l-48 5 24 -32z"/>
<path d="M1676 2898 c4 -24 8 -45 10 -47 2 -2 38 -6 80 -9 l77 -5 -7 24 c-3
13 -9 36 -12 52 -6 26 -8 27 -80 27 l-74 0 6 -42z"/>
<path d="M4666 2928 c4 -7 13 -20 21 -29 18 -21 70 -13 76 11 7 26 0 30 -55
30 -37 0 -47 -3 -42 -12z"/>
<path d="M2260 2904 c0 -4 5 -24 11 -45 11 -37 13 -37 71 -44 33 -4 62 -5 65
-2 3 3 -1 25 -9 49 l-15 43 -61 3 c-34 2 -62 0 -62 -4z"/>
<path d="M4047 2870 c-17 -20 -16 -20 38 -20 56 0 65 6 43 28 -19 19 -62 14
-81 -8z"/>
<path d="M4272 2865 c7 -17 20 -25 37 -26 14 0 38 -3 54 -5 32 -5 33 2 8 34
-15 17 -30 22 -65 22 -45 0 -45 0 -34 -25z"/>
<path d="M4391 2861 c22 -30 25 -31 98 -31 42 0 87 -3 101 -7 l24 -6 -21 34
-22 34 -102 3 -101 4 23 -31z"/>
<path d="M2907 2849 c10 -17 28 -35 41 -40 24 -9 192 -13 192 -4 0 2 -8 20
-17 40 l-17 35 -108 0 -109 0 18 -31z"/>
<path d="M4610 2850 c18 -26 28 -30 66 -30 48 0 52 5 28 38 -12 18 -25 22 -65
22 l-50 0 21 -30z"/>
<path d="M3130 2865 c0 -4 7 -19 14 -34 14 -25 22 -29 83 -34 37 -4 78 -7 91
-7 l23 0 -23 40 -23 40 -82 0 c-46 0 -83 -2 -83 -5z"/>
<path d="M4726 2845 c9 -14 18 -25 19 -25 1 0 5 11 7 25 4 21 1 25 -19 25 -23
0 -23 -1 -7 -25z"/>
<path d="M3322 2853 c30 -61 32 -63 66 -63 l35 0 -46 35 c-44 34 -63 43 -55
28z"/>
<path d="M383 2833 c15 -2 37 -2 50 0 12 2 0 4 -28 4 -27 0 -38 -2 -22 -4z"/>
<path d="M568 2516 c-2 -178 0 -322 4 -320 4 2 9 0 13 -6 3 -5 14 -10 23 -9
15 0 15 1 -1 8 -17 6 -18 27 -17 329 0 208 -3 322 -9 322 -7 0 -11 -117 -13
-324z"/>
<path d="M1265 2808 c11 -48 10 -48 80 -48 47 0 63 3 61 13 -3 6 -7 24 -10 38
-5 24 -9 26 -72 28 l-66 2 7 -33z"/>
<path d="M1414 2798 c3 -17 7 -32 9 -33 1 -1 26 -5 56 -8 52 -6 53 -6 48 18
-6 32 11 33 19 1 5 -23 11 -25 80 -28 l75 -3 -6 30 -5 30 15 -32 15 -33 76 0
c66 0 75 2 70 16 -3 9 -9 27 -12 41 -6 24 -8 24 -90 21 -46 -2 -84 -1 -84 2 0
3 -61 7 -136 8 l-136 2 6 -32z"/>
<path d="M3990 2803 l-22 -28 37 -3 c47 -4 52 1 27 33 l-20 25 -22 -27z"/>
<path d="M4040 2823 c0 -4 9 -19 19 -32 15 -20 29 -24 86 -27 l67 -4 -25 33
c-22 29 -30 32 -86 35 -33 2 -61 -1 -61 -5z"/>
<path d="M4300 2815 c0 -10 101 -55 125 -55 l26 0 -23 30 c-19 27 -27 30 -75
30 -29 0 -53 -2 -53 -5z"/>
<path d="M4430 2812 c0 -2 9 -17 21 -33 20 -28 22 -29 115 -29 52 0 94 3 94 8
-1 4 -9 17 -19 28 -15 19 -30 22 -114 25 -53 2 -97 2 -97 1z"/>
<path d="M1880 2806 c0 -1 5 -17 11 -33 8 -25 17 -32 47 -37 46 -7 122 -8 122
-1 0 3 -7 21 -14 40 l-15 35 -75 0 c-42 0 -76 -2 -76 -4z"/>
<path d="M4650 2799 c0 -19 40 -52 63 -53 23 -1 27 2 27 26 0 20 -6 29 -22 33
-29 6 -68 3 -68 -6z"/>
<path d="M2063 2765 c10 -34 11 -35 64 -35 56 0 59 3 43 44 -9 24 -15 26 -64
26 l-54 0 11 -35z"/>
<path d="M2180 2791 c0 -4 5 -22 11 -40 10 -29 13 -31 64 -31 l53 0 -10 34
c-8 26 -18 35 -41 40 -42 9 -77 7 -77 -3z"/>
<path d="M2300 2780 c0 -29 25 -60 49 -61 14 0 41 -2 59 -3 33 -2 34 -1 28 28
l-5 31 16 -32 c16 -33 17 -33 89 -33 l72 0 -10 34 c-9 27 -17 35 -42 40 -52 9
-256 6 -256 -4z"/>
<path d="M2977 2720 l38 -70 108 0 c60 0 107 3 105 8 -1 4 -18 35 -37 69 l-34
61 -109 1 -109 2 38 -71z"/>
<path d="M2610 2771 c0 -16 22 -71 29 -71 4 0 8 -12 9 -26 3 -40 9 -44 65 -46
l52 -2 -48 -3 c-47 -4 -49 -5 -42 -31 4 -15 12 -30 18 -34 13 -8 137 -11 137
-3 0 16 -26 55 -37 55 -7 0 -13 5 -13 11 0 5 5 7 10 4 13 -8 13 8 -2 40 -10
22 -18 25 -62 27 l-51 2 48 3 c26 2 47 9 47 14 0 15 -21 53 -34 61 -15 11
-126 10 -126 -1z"/>
<path d="M3180 2776 c0 -2 16 -32 36 -65 l36 -61 85 0 84 0 -35 63 -35 62 -86
3 c-47 1 -85 1 -85 -2z"/>
<path d="M3370 2775 c0 -19 43 -74 52 -69 7 4 8 2 4 -4 -12 -19 13 -52 39 -52
23 0 25 4 25 49 0 29 -6 53 -14 60 -16 13 -106 27 -106 16z"/>
<path d="M3950 2747 c0 -5 16 -34 36 -63 l35 -54 60 0 c32 0 59 2 59 5 0 15
-71 115 -82 116 -76 5 -108 4 -108 -4z"/>
<path d="M1283 2729 c4 -13 7 -29 7 -36 0 -7 25 -13 70 -15 l71 -3 -7 30 c-3
17 -8 31 -9 33 -1 2 -33 6 -70 9 -68 6 -68 6 -62 -18z"/>
<path d="M4106 2723 c9 -16 27 -43 38 -60 12 -18 26 -33 31 -33 18 0 75 104
62 112 -7 4 -43 8 -81 8 l-68 0 18 -27z"/>
<path d="M1436 2713 c10 -42 12 -43 65 -43 51 0 54 4 43 48 -6 19 -13 22 -60
22 -54 0 -54 0 -48 -27z"/>
<path d="M1556 2709 c4 -19 7 -35 8 -36 1 -1 37 -5 80 -9 l78 -7 -7 34 c-4 19
-8 35 -9 36 -2 2 -37 6 -79 9 l-77 7 6 -34z"/>
<path d="M3902 2707 c-32 -33 -32 -34 -15 -56 15 -18 26 -22 66 -19 l48 3 -34
53 -33 52 -32 -33z"/>
<path d="M4440 2736 c0 -2 7 -9 15 -16 13 -11 14 -10 9 4 -5 14 -24 23 -24 12z"/>
<path d="M4490 2730 c0 -13 37 -40 45 -33 4 5 6 1 3 -8 -4 -9 -1 -16 8 -16 7
0 11 4 9 8 -3 4 17 -4 45 -17 29 -14 50 -31 50 -40 0 -12 6 -15 23 -10 12 3
28 6 35 6 22 0 14 64 -10 87 -19 18 -39 22 -115 25 -51 3 -93 2 -93 -2z"/>
<path d="M1726 2703 c4 -16 9 -31 11 -35 6 -11 153 -10 153 1 0 5 -4 21 -10
35 -9 25 -13 26 -85 26 l-75 0 6 -27z"/>
<path d="M4705 2720 c3 -5 11 -10 16 -10 6 0 7 5 4 10 -3 6 -11 10 -16 10 -6
0 -7 -4 -4 -10z"/>
<path d="M1910 2711 c0 -5 4 -21 10 -35 9 -25 13 -26 89 -26 l80 0 -10 29 c-6
16 -20 32 -32 35 -35 9 -137 7 -137 -3z"/>
<path d="M2091 2681 c9 -25 17 -29 61 -35 28 -4 52 -5 54 -3 2 2 -1 18 -7 35
-10 31 -13 32 -64 32 l-54 0 10 -29z"/>
<path d="M2210 2694 c0 -39 19 -54 70 -54 53 0 56 3 40 44 -8 23 -15 26 -60
26 -39 0 -50 -4 -50 -16z"/>
<path d="M2330 2699 c0 -4 4 -19 10 -33 9 -24 14 -26 70 -26 59 0 61 1 55 23
-4 12 -10 25 -14 29 -9 9 -121 16 -121 7z"/>
<path d="M2470 2691 c0 -27 22 -60 42 -64 23 -4 23 -4 1 -6 -20 -1 -21 -4 -12
-30 10 -28 13 -30 82 -33 40 -2 75 -2 79 0 5 2 1 16 -7 33 -14 26 -21 29 -68
31 l-52 1 51 6 51 6 -14 33 c-13 32 -13 32 -83 32 -39 0 -70 -4 -70 -9z"/>
<path d="M4480 2688 c0 -3 9 -15 20 -28 11 -13 20 -19 20 -13 0 5 -9 18 -20
28 -11 10 -20 16 -20 13z"/>
<path d="M1304 2644 c3 -9 6 -24 6 -35 0 -17 8 -19 71 -19 69 0 71 1 65 23 -3
12 -6 28 -6 35 0 8 -21 12 -71 12 -61 0 -70 -2 -65 -16z"/>
<path d="M1454 2638 c3 -13 6 -29 6 -35 0 -9 18 -13 55 -13 57 0 61 3 49 48
-6 19 -13 22 -61 22 -52 0 -55 -1 -49 -22z"/>
<path d="M3847 2653 c-11 -11 -8 -20 8 -20 8 0 15 6 15 14 0 14 -12 17 -23 6z"/>
<path d="M1580 2619 c5 -18 11 -34 13 -36 3 -2 38 -3 79 -1 l74 3 -8 33 -9 32
-79 0 -79 0 9 -31z"/>
<path d="M1750 2639 c1 -52 9 -57 91 -61 43 -2 79 -3 79 -2 0 1 -5 15 -11 33
-9 25 -17 31 -39 31 -15 0 -48 3 -74 6 -36 5 -46 4 -46 -7z"/>
<path d="M4976 2634 c-8 -20 -3 -27 18 -22 12 2 13 6 2 21 -13 16 -14 16 -20
1z"/>
<path d="M1941 2608 c5 -18 9 -34 9 -35 0 -2 36 -3 80 -3 44 0 80 4 80 9 0 5
-4 21 -10 35 -9 25 -13 26 -89 26 l-80 0 10 -32z"/>
<path d="M3030 2635 c0 -12 35 -75 42 -75 4 0 5 7 2 15 -4 10 -2 13 8 10 8 -3
23 3 33 15 10 11 25 20 34 21 9 1 5 5 -9 9 -27 9 -110 13 -110 5z"/>
<path d="M2110 2626 c0 -3 4 -16 10 -30 9 -24 15 -26 64 -26 l55 0 -10 30
c-10 28 -14 30 -65 30 -30 0 -54 -2 -54 -4z"/>
<path d="M2241 2601 c10 -29 38 -41 95 -41 21 0 24 3 18 28 -10 41 -11 42 -69
42 l-54 0 10 -29z"/>
<path d="M2363 2609 c4 -13 7 -30 7 -36 0 -9 20 -13 64 -13 l65 0 -10 30 c-6
17 -12 30 -12 30 -1 1 -29 3 -61 6 -58 6 -59 6 -53 -17z"/>
<path d="M3216 2608 c5 -13 8 -33 9 -45 0 -19 6 -23 33 -23 17 0 32 3 32 6 0
4 -10 24 -22 45 -25 44 -65 57 -52 17z m34 -8 c6 -11 8 -20 6 -20 -3 0 -10 9
-16 20 -6 11 -8 20 -6 20 3 0 10 -9 16 -20z m20 -40 c0 -5 -4 -10 -10 -10 -5
0 -10 5 -10 10 0 6 5 10 10 10 6 0 10 -4 10 -10z"/>
<path d="M3285 2600 c9 -17 20 -28 25 -25 5 3 12 0 16 -6 5 -8 3 -9 -6 -4 -8
5 -11 3 -8 -6 3 -10 27 -15 86 -17 45 -2 82 1 82 5 0 5 -11 25 -25 46 l-26 37
-80 0 -80 0 16 -30z m175 -26 c0 0 -7 -1 -15 -1 -8 0 -15 4 -15 8 0 5 -8 5
-17 2 -15 -6 -16 -5 -3 8 12 14 16 14 32 0 10 -8 18 -16 18 -17z m-86 17 c4
-5 -3 -7 -14 -4 -23 6 -26 13 -6 13 8 0 17 -4 20 -9z m-4 -31 c-8 -5 -19 -10
-25 -10 -5 0 -3 5 5 10 8 5 20 10 25 10 6 0 3 -5 -5 -10z m83 -7 c-7 -2 -21
-2 -30 0 -10 3 -4 5 12 5 17 0 24 -2 18 -5z"/>
<path d="M4458 2623 c6 -2 18 -2 25 0 6 3 1 5 -13 5 -14 0 -19 -2 -12 -5z"/>
<path d="M4508 2623 c6 -2 18 -2 25 0 6 3 1 5 -13 5 -14 0 -19 -2 -12 -5z"/>
<path d="M3781 2579 l-33 -39 91 0 c50 0 91 3 91 6 0 4 -9 22 -21 40 -18 29
-26 34 -57 33 -30 -1 -43 -8 -71 -40z"/>
<path d="M3910 2615 c0 -3 12 -23 26 -45 25 -38 30 -40 75 -40 27 0 49 3 49 8
0 4 -11 24 -25 45 -24 34 -29 37 -75 37 -28 0 -50 -2 -50 -5z"/>
<path d="M4048 2609 c-10 -7 26 -70 44 -77 4 -2 8 -11 9 -20 0 -12 2 -13 6 -4
3 7 16 25 29 39 26 28 32 63 12 64 -67 4 -91 3 -100 -2z"/>
<path d="M4615 2580 c-10 -33 12 -60 49 -60 34 0 45 15 46 63 0 27 -86 25 -95
-3z"/>
<path d="M4966 2584 c-3 -9 -6 -27 -6 -40 0 -22 3 -24 55 -24 30 0 55 3 55 7
0 3 -11 21 -26 40 -27 36 -67 45 -78 17z"/>
<path d="M4360 2571 c13 -26 13 -29 -7 -34 -11 -3 -7 -5 10 -6 27 -1 27 -1 12
29 -9 17 -18 30 -21 30 -2 0 0 -9 6 -19z"/>
<path d="M1338 2573 c-21 -5 -21 -6 -7 -55 7 -29 15 -38 32 -38 12 -1 111 -3
221 -6 l199 -6 -7 26 c-19 77 -18 76 -104 76 l-79 0 3 -27 4 -28 -10 27 c-10
23 -17 27 -66 30 l-55 3 5 -30 c5 -30 5 -30 -6 3 -10 31 -13 32 -62 31 -28 -1
-59 -3 -68 -6z"/>
<path d="M1775 2538 c3 -13 9 -33 12 -45 5 -19 13 -22 80 -25 41 -2 76 -2 78
0 1 2 -3 22 -10 45 l-12 42 -78 3 c-77 3 -77 3 -70 -20z"/>
<path d="M1965 2528 c14 -65 18 -68 105 -68 44 0 80 1 80 3 0 2 -7 24 -16 50
l-16 47 -80 0 -80 0 7 -32z"/>
<path d="M2187 2553 c-39 -3 -47 -7 -43 -21 3 -9 8 -29 12 -44 6 -26 10 -28
60 -28 39 0 54 4 54 14 0 14 -28 87 -33 84 -1 -1 -24 -3 -50 -5z"/>
<path d="M2260 2545 c0 -2 7 -23 16 -45 16 -40 16 -40 70 -40 30 0 54 2 54 5
0 2 -7 23 -16 45 -16 40 -16 40 -70 40 -30 0 -54 -2 -54 -5z"/>
<path d="M2390 2536 c0 -21 20 -70 31 -77 12 -7 119 -12 119 -5 0 2 -9 25 -20
50 l-19 46 -56 0 c-41 0 -55 -4 -55 -14z"/>
<path d="M2537 2495 l15 -45 74 0 c41 0 74 3 74 6 0 4 -5 24 -12 45 l-11 39
-78 0 -78 0 16 -45z"/>
<path d="M3223 2513 c15 -2 37 -2 50 0 12 2 0 4 -28 4 -27 0 -38 -2 -22 -4z"/>
<path d="M3458 2513 c7 -3 16 -2 19 1 4 3 -2 6 -13 5 -11 0 -14 -3 -6 -6z"/>
<path d="M3730 2514 c0 -3 12 -25 26 -50 l26 -44 114 0 115 0 -12 23 c-41 77
-40 77 -160 77 -60 0 -109 -3 -109 -6z"/>
<path d="M3976 2508 c57 -97 79 -110 110 -63 14 21 15 31 6 50 -10 22 -18 25
-67 25 -42 0 -54 -3 -49 -12z"/>
<path d="M4338 2503 c7 -3 16 -2 19 1 4 3 -2 6 -13 5 -11 0 -14 -3 -6 -6z"/>
<path d="M4378 2503 c6 -2 18 -2 25 0 6 3 1 5 -13 5 -14 0 -19 -2 -12 -5z"/>
<path d="M4588 2488 c-7 -13 -11 -26 -10 -30 1 -5 -3 -8 -9 -8 -5 0 -8 -4 -5
-9 4 -5 0 -12 -6 -14 -7 -3 17 -6 55 -6 l68 -1 -16 28 c-36 66 -56 77 -77 40z"/>
<path d="M4650 2503 c0 -5 9 -19 20 -33 15 -19 20 -21 20 -8 0 9 3 23 6 32 5
12 0 16 -20 16 -14 0 -26 -3 -26 -7z"/>
<path d="M3106 2487 c3 -10 9 -15 12 -12 3 3 0 11 -7 18 -10 9 -11 8 -5 -6z"/>
<path d="M4480 2496 c0 -2 8 -10 18 -17 15 -13 16 -12 3 4 -13 16 -21 21 -21
13z"/>
<path d="M4950 2477 c0 -14 -3 -32 -6 -41 -5 -13 1 -16 30 -16 l37 0 -18 31
c-28 47 -43 56 -43 26z"/>
<path d="M4986 2488 c36 -63 43 -68 105 -68 l59 0 -26 40 c-26 39 -28 40 -86
40 -45 0 -57 -3 -52 -12z"/>
<path d="M3658 2454 l-38 -34 55 0 c30 0 55 3 55 8 0 4 -8 19 -18 34 l-17 26
-37 -34z"/>
<path d="M4415 2469 c-4 -6 -4 -13 -1 -16 3 -4 6 -1 6 7 0 10 4 10 18 -1 15
-13 16 -12 3 4 -16 20 -18 20 -26 6z"/>
<path d="M3140 2430 c0 -5 5 -10 11 -10 5 0 7 5 4 10 -3 6 -8 10 -11 10 -2 0
-4 -4 -4 -10z"/>
<path d="M3345 2430 c-3 -5 1 -10 10 -10 9 0 13 5 10 10 -3 6 -8 10 -10 10 -2
0 -7 -4 -10 -10z"/>
<path d="M4430 2430 c0 -5 5 -10 11 -10 5 0 7 5 4 10 -3 6 -8 10 -11 10 -2 0
-4 -4 -4 -10z"/>
<path d="M5652 2415 c0 -16 2 -22 5 -12 2 9 2 23 0 30 -3 6 -5 -1 -5 -18z"/>
<path d="M3188 2423 c12 -2 30 -2 40 0 9 3 -1 5 -23 4 -22 0 -30 -2 -17 -4z"/>
<path d="M4338 2423 c18 -2 45 -2 60 0 15 2 0 4 -33 4 -33 0 -45 -2 -27 -4z"/>
<path d="M3170 2374 c0 -4 10 -24 22 -45 l22 -39 113 0 c62 0 113 2 113 5 0 3
-11 23 -25 45 l-25 40 -110 0 c-61 0 -110 -3 -110 -6z m113 -16 c-2 -5 -22 -8
-43 -8 -21 0 -41 3 -43 8 -3 4 17 7 43 7 26 0 46 -3 43 -7z m113 -17 c-3 -5 1
-11 9 -15 8 -3 15 -11 14 -18 0 -10 -2 -10 -6 1 -5 11 -7 11 -14 0 -7 -11 -9
-9 -9 5 0 19 -1 19 -13 2 -12 -16 -13 -16 -13 3 0 11 4 18 7 15 4 -2 10 0 14
6 3 5 8 10 11 10 3 0 3 -4 0 -9z m-137 -19 c8 -16 6 -18 -12 -16 -12 1 -25 3
-29 3 -5 1 -8 8 -8 16 0 21 37 19 49 -3z m41 -5 c11 -5 9 -6 -4 -4 -11 1 -21
9 -23 17 -3 10 -2 11 4 4 4 -6 15 -14 23 -17z"/>
<path d="M3225 2320 c4 -6 11 -8 16 -5 14 9 11 15 -7 15 -8 0 -12 -5 -9 -10z"/>
<path d="M3420 2374 c0 -3 10 -23 23 -44 l22 -40 83 0 c45 0 82 2 82 6 0 3
-10 23 -22 44 l-23 40 -82 0 c-46 0 -83 -2 -83 -6z m116 -16 c-2 -17 -38 -58
-49 -58 -10 0 -46 41 -47 52 0 4 19 9 43 11 23 2 45 4 49 5 3 1 5 -4 4 -10z"/>
<path d="M3498 2343 c6 -2 18 -2 25 0 6 3 1 5 -13 5 -14 0 -19 -2 -12 -5z"/>
<path d="M3477 2325 c3 -8 9 -12 14 -9 12 7 11 11 -5 17 -10 4 -13 1 -9 -8z"/>
<path d="M3624 2338 l25 -43 81 -3 c44 -2 80 1 80 5 0 5 -11 25 -25 46 l-26
37 -80 0 -80 0 25 -42z"/>
<path d="M3837 2335 l25 -45 57 0 c31 0 64 6 73 13 18 14 48 58 48 69 0 5 -51
8 -114 8 l-115 0 26 -45z"/>
<path d="M4345 2370 c3 -5 8 -10 11 -10 2 0 4 5 4 10 0 6 -5 10 -11 10 -5 0
-7 -4 -4 -10z"/>
<path d="M4413 2373 c9 -2 25 -2 35 0 9 3 1 5 -18 5 -19 0 -27 -2 -17 -5z"/>
<path d="M4582 2340 c19 -34 28 -40 56 -40 27 0 32 4 32 24 0 13 3 31 6 40 5
14 -3 16 -55 16 l-62 0 23 -40z"/>
<path d="M4930 2342 c0 -38 2 -42 25 -42 14 0 25 2 25 6 0 3 -11 22 -25 42
l-25 37 0 -43z"/>
<path d="M4976 2340 c24 -37 30 -40 70 -40 24 0 44 3 44 7 0 3 -11 21 -26 40
-22 29 -31 33 -70 33 l-44 0 26 -40z"/>
<path d="M5086 2340 c26 -39 27 -40 85 -37 33 1 59 3 59 5 0 2 -12 19 -26 38
-25 32 -30 34 -85 34 l-59 0 26 -40z"/>
<path d="M4371 2344 c-1 -5 5 -18 12 -28 10 -13 24 -16 62 -13 l50 3 -51 2
c-42 2 -53 6 -62 25 -6 12 -11 17 -11 11z"/>
<path d="M4512 2320 c-11 -18 -10 -20 18 -20 28 0 29 2 18 20 -7 11 -15 20
-18 20 -3 0 -11 -9 -18 -20z"/>
<path d="M5684 2315 c11 -8 25 -15 32 -15 7 0 15 -5 17 -10 3 -6 5 -6 3 1 -1
6 -17 17 -36 25 -31 12 -33 12 -16 -1z"/>
<path d="M4916 2259 c-12 -59 -12 -59 65 -59 l71 0 -25 43 c-22 37 -30 42 -65
45 -37 3 -40 1 -46 -29z"/>
<path d="M5020 2285 c0 -3 11 -24 25 -46 24 -38 28 -40 70 -38 25 2 45 5 45 8
0 3 -12 22 -26 43 -24 34 -31 38 -70 38 -24 0 -44 -2 -44 -5z"/>
<path d="M5130 2284 c0 -3 11 -22 25 -42 24 -36 27 -37 85 -37 33 0 60 1 60 3
0 1 -12 20 -26 42 -26 39 -28 40 -85 40 -33 0 -59 -2 -59 -6z"/>
<path d="M3558 2273 c-43 -2 -78 -7 -78 -11 0 -4 11 -25 24 -47 l24 -40 79 4
c43 1 80 4 82 6 2 2 -9 25 -23 50 -15 25 -28 44 -29 43 -1 -1 -37 -4 -79 -5z"/>
<path d="M3713 2270 l-51 -5 25 -42 25 -43 85 0 85 0 -23 38 c-37 62 -40 63
-146 52z"/>
<path d="M3880 2274 c0 -4 10 -23 21 -44 24 -42 44 -49 119 -40 36 4 41 7 23
13 -12 4 -33 17 -48 28 -20 17 -23 24 -14 35 10 12 2 14 -45 14 -31 0 -56 -3
-56 -6z"/>
<path d="M4443 2273 c53 -5 51 -3 35 -38 -11 -25 -28 -34 -28 -15 0 6 -5 10
-12 10 -7 0 -3 -9 9 -21 19 -20 28 -21 101 -14 l80 7 -26 39 -27 38 -90 -1
c-49 -1 -69 -3 -42 -5z"/>
<path d="M4630 2271 c0 -5 7 -14 15 -21 13 -10 15 -9 15 9 0 12 -6 21 -15 21
-8 0 -15 -4 -15 -9z"/>
<path d="M3230 2263 c0 -5 11 -26 23 -48 l23 -40 117 -3 c64 -1 117 -1 117 1
0 3 -12 25 -26 51 l-26 46 -114 0 c-63 0 -114 -3 -114 -7z"/>
<path d="M5749 2242 c-3 -20 -2 -29 4 -23 5 5 7 19 5 32 -3 20 -5 19 -9 -9z"/>
<path d="M616 2247 c3 -10 9 -15 12 -12 3 3 0 11 -7 18 -10 9 -11 8 -5 -6z"/>
<path d="M420 2192 c-20 -9 -44 -33 -54 -53 -18 -33 -19 -41 -6 -78 15 -46 44
-79 55 -61 3 6 1 9 -6 8 -14 -3 -48 56 -49 86 0 25 36 82 58 91 9 4 44 11 77
15 l60 7 -50 2 c-30 0 -64 -6 -85 -17z"/>
<path d="M4904 2175 c-4 -8 -3 -26 0 -39 3 -14 1 -28 -4 -31 -6 -4 -8 -11 -4
-16 3 -5 9 -7 14 -4 4 3 81 5 170 6 l162 0 -15 22 c-52 81 -46 77 -98 77 l-49
0 26 -40 c15 -22 24 -43 21 -46 -3 -4 -19 14 -34 40 l-28 46 -78 0 c-60 0 -79
-3 -83 -15z"/>
<path d="M5221 2145 c16 -24 35 -47 40 -51 6 -3 35 -3 65 1 l54 6 -32 45 -31
44 -63 0 -63 0 30 -45z"/>
<path d="M4460 2174 c0 -3 12 -28 28 -56 l27 -50 57 4 c32 2 59 6 62 9 2 2 7
25 10 52 l7 47 -95 0 c-53 0 -96 -3 -96 -6z"/>
<path d="M5710 2169 c0 -5 5 -7 10 -4 6 3 10 8 10 11 0 2 -4 4 -10 4 -5 0 -10
-5 -10 -11z"/>
<path d="M3768 2163 c-21 -2 -38 -6 -38 -9 0 -3 11 -27 25 -54 l25 -50 90 0
89 0 -33 58 c-33 55 -36 57 -78 58 -23 1 -60 -1 -80 -3z"/>
<path d="M3957 2138 c50 -85 36 -78 161 -78 l114 0 -19 33 c-30 52 -92 77
-191 77 l-84 0 19 -32z"/>
<path d="M4287 2135 c-15 -31 -20 -35 -44 -29 -26 7 -27 6 -13 -12 22 -28 33
-34 50 -28 8 4 30 6 48 5 l33 -2 -27 48 c-15 26 -28 49 -29 50 -1 2 -9 -13
-18 -32z m27 -1 c4 -10 2 -13 -6 -8 -8 5 -9 1 -4 -12 5 -14 4 -16 -4 -8 -6 6
-8 18 -4 27 8 21 10 21 18 1z"/>
<path d="M4330 2166 c0 -3 10 -21 21 -41 14 -24 24 -32 29 -25 6 9 9 9 12 -1
3 -9 6 -9 11 3 4 13 1 16 -14 13 -20 -4 -45 28 -34 45 3 6 -1 10 -9 10 -9 0
-16 -2 -16 -4z"/>
<path d="M4370 2160 c0 -5 5 -10 11 -10 5 0 7 5 4 10 -3 6 -8 10 -11 10 -2 0
-4 -4 -4 -10z"/>
<path d="M3290 2153 c0 -2 13 -29 29 -61 l29 -57 116 3 c64 2 116 6 116 10 0
4 -14 31 -31 60 l-30 53 -115 -2 c-63 -1 -114 -4 -114 -6z"/>
<path d="M3540 2155 c0 -3 14 -30 31 -60 34 -61 37 -62 145 -49 l51 6 -29 54
-30 54 -84 0 c-46 0 -84 -2 -84 -5z"/>
<path d="M4426 2120 c-10 -21 -26 -41 -35 -43 -9 -3 12 -5 47 -6 l63 -1 -15
28 c-34 63 -39 65 -60 22z"/>
<path d="M5679 2143 c-13 -16 -12 -17 4 -4 16 13 21 21 13 21 -2 0 -10 -8 -17
-17z"/>
<path d="M5437 2079 c7 -7 15 -10 18 -7 3 3 -2 9 -12 12 -14 6 -15 5 -6 -5z"/>
<path d="M1586 2038 c-44 -23 -71 -46 -63 -54 3 -3 14 3 24 13 13 13 32 18 58
17 34 -1 35 -1 6 3 l-34 4 28 15 c21 11 31 11 41 3 9 -7 14 -8 14 -1 0 5 -7
13 -16 16 -19 7 -11 9 -58 -16z"/>
<path d="M1672 2024 c-7 -8 -10 -19 -7 -24 3 -6 -2 -10 -12 -11 -10 0 -5 -4
11 -10 17 -4 32 -6 35 -4 2 3 -1 5 -7 5 -7 0 -12 5 -12 11 0 5 4 8 8 5 5 -3
22 -1 38 4 l29 8 -32 1 c-18 1 -33 5 -33 11 0 5 8 7 18 4 14 -5 15 -4 2 5 -19
14 -22 13 -38 -5z"/>
<path d="M542 2010 c0 -14 2 -19 5 -12 2 6 2 18 0 25 -3 6 -5 1 -5 -13z"/>
<path d="M1760 2002 c0 -7 -12 -13 -27 -13 -26 -2 -26 -2 -4 -6 24 -5 50 11
38 24 -4 3 -7 1 -7 -5z"/>
<path d="M424 1989 c-3 -6 1 -18 10 -27 10 -11 16 -12 16 -4 0 7 -5 12 -11 12
-6 0 -9 7 -5 15 6 17 0 20 -10 4z"/>
<path d="M858 1993 c6 -2 18 -2 25 0 6 3 1 5 -13 5 -14 0 -19 -2 -12 -5z"/>
<path d="M1558 1978 c-22 -22 -22 -28 -4 -28 7 0 16 10 19 22 8 28 6 29 -15 6z"/>
<path d="M688 1974 c-28 -14 -38 -34 -18 -34 6 0 10 4 10 9 0 19 60 34 93 23
31 -10 30 -10 -13 -6 -30 3 -39 2 -26 -4 19 -8 19 -9 -2 -14 -12 -4 -20 -2
-16 3 9 15 -13 10 -26 -6 -7 -8 -20 -15 -30 -15 -18 0 -32 -31 -21 -47 3 -6
13 -13 21 -17 8 -3 5 -4 -7 -2 -13 2 -26 0 -29 -5 -10 -16 -22 -10 -43 24 -11
17 -21 27 -21 20 0 -6 5 -15 10 -18 6 -3 10 -15 10 -25 0 -13 -14 -23 -49 -35
-58 -19 -80 -40 -62 -58 9 -9 14 -9 22 3 8 11 9 10 4 -8 -6 -19 -3 -23 12 -20
15 2 17 -3 15 -29 -4 -43 17 -53 125 -54 48 -1 120 -4 158 -8 52 -4 85 -2 128
12 33 9 70 17 83 17 17 0 23 4 18 12 -4 7 -3 8 5 4 7 -4 35 -5 63 -1 42 6 49
10 37 19 -14 10 -12 15 11 39 14 16 34 29 43 31 22 3 71 57 60 66 -12 11 -80
20 -88 12 -4 -4 -10 -7 -13 -8 -4 0 -20 -4 -35 -9 -18 -5 -33 -3 -40 4 -8 8
-8 11 1 11 19 0 14 65 -6 90 -15 18 -24 21 -50 15 -18 -3 -32 -11 -32 -16 0
-6 -5 -7 -10 -4 -6 4 -33 -14 -61 -39 -67 -60 -86 -60 -94 -1 -4 24 -7 48 -7
52 1 14 -42 32 -73 32 -16 0 -42 -7 -57 -15z m369 -30 c-3 -3 -12 -4 -19 -1
-8 3 -5 6 6 6 11 1 17 -2 13 -5z m-337 -24 c0 -5 -5 -10 -11 -10 -5 0 -7 5 -4
10 3 6 8 10 11 10 2 0 4 -4 4 -10z m240 -30 c0 -5 -5 -10 -11 -10 -5 0 -7 5
-4 10 3 6 8 10 11 10 2 0 4 -4 4 -10z m-327 -70 c3 -11 1 -18 -4 -14 -5 3 -9
12 -9 20 0 20 7 17 13 -6z m-93 -10 c-8 -5 -19 -10 -25 -10 -5 0 -3 5 5 10 8
5 20 10 25 10 6 0 3 -5 -5 -10z m27 -9 c0 -11 -5 -18 -9 -15 -4 3 -5 11 -1 19
7 21 12 19 10 -4z m24 -14 c-10 -9 -11 -8 -5 6 3 10 9 15 12 12 3 -3 0 -11 -7
-18z m-103 -1 c-7 -8 -15 -12 -17 -11 -5 6 10 25 20 25 5 0 4 -6 -3 -14z m34
-18 c-7 -7 -12 -8 -12 -2 0 14 12 26 19 19 2 -3 -1 -11 -7 -17z m28 -73 c7 -9
8 -15 2 -15 -5 0 -12 7 -16 15 -3 8 -4 15 -2 15 2 0 9 -7 16 -15z m183 -2 c-7
-2 -19 -2 -25 0 -7 3 -2 5 12 5 14 0 19 -2 13 -5z m162 -12 c19 -8 19 -8 -4
-21 -21 -11 -23 -10 -18 3 3 9 1 18 -6 21 -7 2 -7 4 -2 5 6 0 19 -4 30 -8z
m58 2 c-7 -2 -19 -2 -25 0 -7 3 -2 5 12 5 14 0 19 -2 13 -5z m-240 -10 c-7 -2
-19 -2 -25 0 -7 3 -2 5 12 5 14 0 19 -2 13 -5z m130 -10 c-7 -2 -19 -2 -25 0
-7 3 -2 5 12 5 14 0 19 -2 13 -5z"/>
<path d="M1516 1943 c-6 -14 -5 -15 5 -6 7 7 10 15 7 18 -3 3 -9 -2 -12 -12z"/>
<path d="M460 1946 c0 -2 16 -13 36 -25 19 -12 32 -16 29 -11 -7 11 -65 43
-65 36z"/>
<path d="M4776 1937 c3 -10 9 -15 12 -12 3 3 0 11 -7 18 -10 9 -11 8 -5 -6z"/>
<path d="M600 1875 c0 -16 16 -20 24 -6 3 5 -1 11 -9 15 -9 3 -15 0 -15 -9z"/>
<path d="M4295 1770 c-3 -5 -1 -10 4 -10 6 0 11 5 11 10 0 6 -2 10 -4 10 -3 0
-8 -4 -11 -10z"/>
<path d="M4413 1743 c9 -2 23 -2 30 0 6 3 -1 5 -18 5 -16 0 -22 -2 -12 -5z"/>
<path d="M4258 1733 c12 -2 32 -2 45 0 12 2 2 4 -23 4 -25 0 -35 -2 -22 -4z"/>
<path d="M1348 1723 c6 -2 18 -2 25 0 6 3 1 5 -13 5 -14 0 -19 -2 -12 -5z"/>
<path d="M1208 1713 c7 -3 16 -2 19 1 4 3 -2 6 -13 5 -11 0 -14 -3 -6 -6z"/>
<path d="M5275 1690 c-3 -6 1 -7 9 -4 18 7 21 14 7 14 -6 0 -13 -4 -16 -10z"/>
<path d="M5670 1670 c0 -5 -7 -10 -15 -10 -8 0 -15 -6 -15 -14 0 -10 -13 -16
-37 -19 -21 -2 16 -4 81 -5 103 -2 121 0 132 16 21 28 16 36 -7 11 -17 -20
-20 -21 -14 -5 5 18 4 19 -12 4 -18 -16 -48 -14 -37 3 3 5 -4 9 -16 9 -12 0
-30 5 -41 10 -13 7 -19 7 -19 0z m43 -27 c3 -5 -6 -9 -19 -9 -13 -1 -24 2 -24
7 0 11 37 12 43 2z"/>
<path d="M3155 1629 c-4 -17 -3 -35 1 -39 5 -5 10 9 11 31 1 47 -3 50 -12 8z"/>
<path d="M4014 1623 c-12 -13 -19 -14 -22 -5 -5 17 -31 15 -38 -3 -5 -11 -10
-13 -19 -5 -23 19 -40 5 -73 -62 -2 -5 41 -8 97 -8 94 0 115 6 116 32 0 3 4
10 9 15 5 5 6 3 2 -4 -4 -7 -3 -13 2 -13 9 0 22 23 22 37 0 3 -14 3 -30 -1
-25 -4 -30 -3 -28 11 4 23 -17 27 -38 6z m41 -63 c-3 -5 -12 -10 -18 -10 -7 0
-6 4 3 10 19 12 23 12 15 0z"/>
<path d="M1502 1575 c-7 -14 -12 -35 -12 -47 0 -20 0 -20 -18 2 -22 28 -46 18
-39 -15 4 -21 2 -22 -21 -14 -50 19 -72 -16 -30 -45 18 -13 51 -16 154 -16 73
0 140 3 148 6 26 10 40 43 25 60 -16 19 -25 18 -49 -8 l-20 -22 0 37 c0 43
-19 49 -43 15 -16 -23 -16 -23 -16 13 -1 19 -6 40 -13 47 -21 21 -54 14 -66
-13z"/>
<path d="M2288 1593 c7 -3 16 -2 19 1 4 3 -2 6 -13 5 -11 0 -14 -3 -6 -6z"/>
<path d="M2326 1589 c3 -5 12 -9 19 -9 20 0 38 -38 31 -66 l-6 -23 -133 6
c-72 3 -138 10 -145 16 -11 8 -13 7 -10 -5 1 -9 -1 -16 -7 -15 -5 1 -9 6 -7
11 4 12 -29 35 -50 36 -21 0 -24 -16 -5 -23 6 -2 8 -8 4 -13 -4 -5 -12 -2 -17
6 -5 8 -23 16 -40 16 -44 2 -48 5 -20 15 22 8 22 8 -7 4 -18 -2 -54 -18 -80
-34 -58 -37 -46 -41 16 -6 24 14 46 23 48 21 7 -7 -74 -56 -93 -56 -13 0 -14
-3 -4 -15 8 -9 8 -15 2 -15 -6 0 -14 9 -17 20 -4 11 -10 18 -15 15 -5 -3 -5
-16 0 -30 5 -14 6 -25 1 -25 -5 0 -11 6 -14 13 -2 6 -8 8 -13 4 -5 -5 -1 -13
8 -18 9 -5 24 -17 33 -25 9 -9 18 -14 21 -11 3 3 14 -3 25 -14 20 -20 54 -15
45 7 -3 8 -1 14 3 14 5 0 12 -7 15 -16 4 -11 -1 -18 -14 -21 -11 -3 -20 -9
-20 -13 0 -5 -10 -12 -21 -15 -56 -18 27 -25 308 -25 208 0 304 3 309 11 3 6
-8 24 -25 39 -37 34 -39 50 -8 50 27 0 47 17 47 41 0 22 -10 28 -62 38 -38 6
-43 10 -40 31 4 38 -17 77 -43 83 -14 2 -22 0 -19 -4z m-437 -121 c-10 -7 -7
-8 10 -4 23 5 23 4 -5 -23 -29 -28 -84 -49 -84 -33 0 5 11 15 25 22 14 7 23
15 21 18 -8 7 27 41 37 35 5 -3 3 -10 -4 -15z m161 -2 c0 -9 -7 -12 -20 -9
-11 3 -17 9 -14 14 8 14 34 10 34 -5z m-30 -26 c0 -6 -11 -8 -27 -4 -40 10
-41 14 -5 14 18 0 32 -5 32 -10z m-51 -27 c3 -2 -5 -13 -17 -25 -12 -12 -25
-19 -29 -14 -4 4 -1 11 7 16 12 7 12 11 -1 26 -13 15 -12 16 11 9 14 -4 27 -9
29 -12z m-92 -39 c-3 -3 -12 -4 -19 -1 -8 3 -5 6 6 6 11 1 17 -2 13 -5z"/>
<path d="M3070 1579 c-12 -8 -10 -9 9 -4 13 4 21 3 18 -2 -3 -5 3 -9 14 -9 19
0 19 1 3 13 -21 16 -25 16 -44 2z"/>
<path d="M2959 1563 c-1 -10 -1 -21 0 -25 0 -4 -19 -5 -43 -2 -65 9 -96 -1
-96 -31 0 -33 46 -45 171 -45 l97 0 -10 40 c-6 22 -15 40 -20 40 -5 0 -6 5 -3
10 3 6 2 10 -4 10 -5 0 -13 -5 -16 -11 -5 -6 -13 -3 -22 10 -17 26 -53 28 -54
4z"/>
<path d="M3138 1463 c12 -2 30 -2 40 0 9 3 -1 5 -23 4 -22 0 -30 -2 -17 -4z"/>
<path d="M798 1425 c19 -35 160 -168 247 -235 147 -112 284 -193 577 -340 551
-275 856 -368 1321 -402 351 -25 806 40 1187 170 151 52 295 112 516 216 278
130 423 213 595 343 97 72 273 232 265 240 -2 2 -26 -7 -53 -20 -110 -56 -341
-116 -646 -167 -93 -16 -171 -31 -174 -34 -11 -11 8 -24 29 -19 25 7 48 -19
48 -56 l0 -24 23 21 c34 32 79 29 116 -9 35 -35 40 -73 12 -89 -29 -15 -573
-14 -589 2 -30 30 2 102 55 124 40 17 86 6 99 -24 5 -13 8 -10 13 13 9 44 45
46 70 4 l20 -32 6 26 c11 42 0 60 -32 53 -58 -11 -348 -36 -583 -50 -851 -51
-1768 -13 -2445 99 -261 44 -562 128 -645 180 -29 18 -39 21 -32 10z m1507
-358 c5 -16 13 -23 32 -22 21 0 37 -14 49 -43 1 -1 15 5 31 14 40 24 77 12
108 -33 30 -45 32 -69 5 -83 -13 -7 -153 -10 -430 -8 -352 3 -412 5 -420 18
-39 62 41 102 120 61 22 -11 42 -21 45 -21 2 0 -3 16 -10 34 -8 20 -11 37 -6
40 10 7 41 -3 41 -13 1 -12 40 -54 46 -48 3 3 -2 19 -10 36 -22 42 -20 60 9
67 37 9 82 -13 106 -52 25 -40 28 -42 22 -10 -8 41 13 66 56 66 41 0 91 -31
91 -56 0 -8 5 -14 10 -14 6 0 10 7 10 16 0 9 8 29 17 45 22 37 70 41 78 6z
m697 -81 c98 -7 180 -15 184 -18 3 -4 3 -11 0 -16 -7 -11 -414 -27 -445 -17
-23 7 -30 50 -8 58 19 8 78 7 269 -7z m832 -62 c19 -18 19 -27 2 -76 -8 -21
-10 -38 -6 -38 4 0 11 11 14 25 9 35 52 76 74 68 26 -10 30 -22 25 -64 -4 -25
-2 -39 6 -39 6 0 11 9 11 20 0 26 34 60 61 60 30 0 79 -56 79 -90 0 -57 -15
-60 -320 -59 -151 1 -286 4 -300 8 -14 4 -26 15 -28 24 -5 24 51 77 82 77 28
0 77 -19 88 -35 4 -5 8 -8 9 -5 0 3 2 18 4 34 6 45 13 56 35 56 22 0 39 -33
41 -78 1 -31 5 -22 14 30 7 44 49 98 75 98 10 0 26 -7 34 -16z m-975 -112 c7
-13 5 -37 -5 -76 -18 -68 -13 -100 6 -41 16 51 58 97 85 93 17 -3 20 -10 19
-55 l-2 -53 30 25 c16 14 40 25 52 25 31 0 57 -30 51 -61 -9 -47 -22 -50 -284
-47 l-246 3 -9 28 c-8 21 -7 35 5 55 20 37 53 40 83 7 l25 -27 3 38 c4 51 32
68 59 35 11 -14 23 -37 26 -53 9 -44 20 -33 26 26 3 30 10 64 17 75 13 26 46
27 59 3z"/>
<path d="M3050 650 c-9 -6 -10 -10 -3 -10 6 0 15 5 18 10 8 12 4 12 -15 0z"/>
</g>
</svg>
