<?xml version="1.0" standalone="no"?>
<!DOCTYPE svg PUBLIC "-//W3C//DTD SVG 20010904//EN"
 "http://www.w3.org/TR/2001/REC-SVG-20010904/DTD/svg10.dtd">
<svg version="1.0" xmlns="http://www.w3.org/2000/svg"
 width="450.000000pt" height="450.000000pt" viewBox="0 0 450.000000 450.000000"
 preserveAspectRatio="xMidYMid meet">

<g transform="translate(0.000000,450.000000) scale(0.100000,-0.100000)"
fill="#000000" stroke="none">
<path d="M4410 3838 c0 -9 5 -20 10 -23 13 -8 13 5 0 25 -8 13 -10 13 -10 -2z"/>
<path d="M4441 3664 c0 -11 3 -14 6 -6 3 7 2 16 -1 19 -3 4 -6 -2 -5 -13z"/>
<path d="M4452 3620 c0 -14 2 -19 5 -12 2 6 2 18 0 25 -3 6 -5 1 -5 -13z"/>
<path d="M1934 3614 c-18 -14 -18 -15 4 -4 12 6 22 13 22 15 0 8 -5 6 -26 -11z"/>
<path d="M4462 3475 c3 -231 -1 -288 -16 -282 -7 3 -19 0 -25 -6 -6 -6 -11 -7
-11 -2 0 6 -38 7 -97 4 -54 -4 -110 -7 -125 -8 -17 -1 -29 -8 -33 -21 -5 -15
-12 -19 -31 -14 -14 4 -31 1 -39 -6 -8 -7 -15 -8 -15 -2 0 5 7 15 15 22 8 7
15 18 15 24 0 6 -5 3 -10 -6 -6 -9 -25 -26 -43 -37 -27 -16 -40 -18 -72 -11
-37 8 -77 41 -87 72 -4 11 -8 11 -21 -1 -10 -7 -17 -19 -17 -25 0 -16 -69 -33
-100 -25 -14 4 -20 7 -14 8 15 1 25 52 13 71 -7 12 -8 11 -7 -5 3 -41 -2 -54
-17 -49 -9 4 -15 0 -15 -9 0 -9 -4 -19 -10 -22 -11 -7 -2 23 12 42 6 7 8 18 6
24 -2 7 -10 -2 -17 -19 -8 -18 -18 -32 -23 -32 -5 0 -7 -4 -4 -8 6 -10 3 -10
-71 -18 -49 -5 -55 -4 -82 24 -28 28 -41 31 -41 10 0 -5 4 -7 9 -4 5 3 11 0
14 -7 3 -9 -22 -13 -109 -14 -103 -1 -114 1 -119 18 -4 11 -15 19 -28 19 -18
0 -19 -2 -7 -10 11 -7 11 -10 2 -10 -7 0 -10 -4 -7 -10 3 -5 -2 -10 -12 -10
-10 0 -24 9 -31 21 -9 13 -19 18 -32 14 -11 -4 -23 1 -32 12 -7 10 -19 19 -27
21 -8 2 -20 11 -28 20 -10 14 -12 14 -12 2 -1 -8 19 -28 43 -45 24 -16 86 -64
136 -105 51 -41 95 -75 99 -75 3 -1 21 -15 40 -33 18 -17 38 -29 44 -25 5 3 7
2 4 -3 -3 -5 27 -34 67 -64 223 -168 430 -336 447 -363 45 -76 30 -178 -36
-236 -44 -38 -91 -51 -191 -51 l-81 0 -7 -647 c-8 -638 -8 -649 -29 -686 -12
-22 -40 -50 -63 -63 l-41 -24 -1243 0 -1243 0 -41 24 c-23 13 -51 41 -63 63
-20 37 -21 47 -24 685 l-4 648 -85 0 c-104 0 -150 12 -195 51 -66 58 -81 160
-36 235 10 16 98 92 197 169 98 76 181 141 184 144 3 3 34 28 70 55 138 105
200 159 193 169 -3 6 -1 7 5 3 11 -7 162 101 162 116 0 4 6 8 14 8 16 0 41 28
33 36 -3 4 -28 -12 -54 -34 -29 -26 -51 -38 -57 -32 -6 6 -14 3 -22 -8 -9 -11
-13 -13 -14 -4 0 9 -5 10 -18 3 -24 -13 -102 -2 -109 15 -3 8 -10 14 -15 14
-6 0 -5 -6 2 -15 11 -13 -12 -15 -199 -15 -134 0 -211 4 -211 10 0 6 -33 10
-80 10 -47 0 -80 -4 -80 -10 0 -5 -18 -10 -40 -10 -22 0 -40 5 -40 10 0 6 -33
10 -80 10 -47 0 -80 4 -80 10 0 6 -18 10 -40 10 -33 0 -40 -3 -40 -20 0 -17
-7 -20 -40 -20 -28 0 -40 4 -40 14 0 19 -12 26 -50 31 -26 3 -30 0 -30 -21 0
-13 -4 -24 -10 -24 -5 0 -10 10 -10 23 0 18 -2 19 -11 7 -8 -11 -9 -2 -5 35 4
36 3 46 -5 35 -7 -11 -8 8 -3 63 4 51 3 77 -4 77 -6 0 -12 8 -15 18 -6 26 -7
15 -13 -1029 -8 -1277 3 -1516 75 -1726 48 -139 104 -226 221 -343 117 -117
204 -173 343 -221 201 -69 390 -79 1607 -79 1217 0 1406 10 1607 79 139 48
226 104 343 221 209 209 269 381 290 823 13 266 12 1866 0 2167 -11 264 -29
386 -28 185z m-582 -293 c0 -5 -7 -17 -16 -28 -14 -17 -15 -17 -10 -1 3 10 6
23 6 28 0 5 5 9 10 9 6 0 10 -4 10 -8z m-685 -38 l17 -27 -26 19 c-26 19 -33
34 -17 34 5 0 16 -12 26 -26z m709 8 c3 -5 -1 -9 -9 -9 -8 0 -15 4 -15 9 0 4
4 8 9 8 6 0 12 -4 15 -8z m-659 -32 c-3 -5 -11 -10 -16 -10 -6 0 -7 5 -4 10 3
6 11 10 16 10 6 0 7 -4 4 -10z m-2005 -38 c0 -1 -9 2 -20 8 -11 6 -20 15 -20
20 0 6 9 2 20 -7 11 -10 20 -19 20 -21z m2317 32 c-3 -3 -12 -4 -19 -1 -8 3
-5 6 6 6 11 1 17 -2 13 -5z m516 -1 c-7 -2 -21 -2 -30 0 -10 3 -4 5 12 5 17 0
24 -2 18 -5z m-506 -29 c-3 -3 -12 -4 -19 -1 -8 3 -5 6 6 6 11 1 17 -2 13 -5z
m76 -1 c-7 -2 -21 -2 -30 0 -10 3 -4 5 12 5 17 0 24 -2 18 -5z m354 1 c-3 -3
-12 -4 -19 -1 -8 3 -5 6 6 6 11 1 17 -2 13 -5z m56 -1 c-7 -2 -19 -2 -25 0 -7
3 -2 5 12 5 14 0 19 -2 13 -5z m-703 -38 c0 -1 -8 -5 -18 -7 -11 -3 -19 0 -19
7 0 7 8 10 19 7 10 -2 18 -6 18 -7z"/>
<path d="M3796 3537 c3 -10 9 -15 12 -12 3 3 0 11 -7 18 -10 9 -11 8 -5 -6z"/>
<path d="M1819 3519 l-24 -20 28 17 c15 9 27 18 27 20 0 8 -8 4 -31 -17z"/>
<path d="M1769 3483 c-13 -16 -12 -17 4 -4 9 7 17 15 17 17 0 8 -8 3 -21 -13z"/>
<path d="M3146 3488 c3 -5 10 -6 15 -3 13 9 11 12 -6 12 -8 0 -12 -4 -9 -9z"/>
<path d="M31 3474 c0 -11 3 -14 6 -6 3 7 2 16 -1 19 -3 4 -6 -2 -5 -13z"/>
<path d="M2795 3441 c-3 -5 -2 -12 3 -15 5 -3 9 1 9 9 0 17 -3 19 -12 6z"/>
<path d="M20 3433 c0 -5 5 -15 10 -23 8 -12 10 -11 10 8 0 12 -4 22 -10 22 -5
0 -10 -3 -10 -7z"/>
<path d="M3395 3410 c10 -11 20 -20 23 -20 3 0 -3 9 -13 20 -10 11 -20 20 -23
20 -3 0 3 -9 13 -20z"/>
<path d="M1615 3369 c-27 -22 -57 -47 -65 -56 -31 -32 24 6 75 52 62 55 57 58
-10 4z"/>
<path d="M2820 3407 c0 -2 15 -14 33 -27 l32 -23 -24 26 c-21 23 -41 35 -41
24z"/>
<path d="M3852 3400 c0 -8 4 -26 8 -40 6 -20 8 -21 8 -5 0 11 -3 29 -8 40 -5
12 -8 14 -8 5z"/>
<path d="M3450 3340 c6 -11 13 -20 16 -20 2 0 0 9 -6 20 -6 11 -13 20 -16 20
-2 0 0 -9 6 -20z"/>
<path d="M2273 3335 c0 -8 4 -12 9 -9 5 3 6 10 3 15 -9 13 -12 11 -12 -6z"/>
<path d="M2906 3342 c5 -4 22 -18 39 -32 16 -14 24 -17 16 -8 -7 9 -10 22 -6
27 3 6 0 8 -8 5 -8 -3 -18 -1 -22 5 -3 6 -11 11 -18 11 -6 0 -7 -3 -1 -8z"/>
<path d="M2310 3316 c8 -11 15 -29 15 -40 0 -15 6 -20 19 -18 10 2 16 0 13 -5
-3 -4 1 -14 9 -21 8 -7 14 -10 14 -6 0 4 9 -1 19 -10 11 -10 25 -15 30 -11 6
3 11 2 11 -3 0 -5 9 -12 19 -15 29 -7 23 -43 -6 -41 -34 1 -41 14 -7 14 28 1
28 1 10 15 -13 10 -23 12 -30 5 -13 -13 -29 -13 -21 0 4 6 -45 10 -140 10
-142 0 -146 1 -154 23 -11 28 -8 31 16 18 15 -8 20 -7 20 4 0 22 -54 12 -82
-15 -13 -12 -24 -25 -23 -29 2 -18 -3 -31 -13 -31 -8 0 -8 5 1 15 23 28 -1 15
-75 -41 -41 -31 -72 -60 -69 -65 3 -5 2 -8 -3 -7 -20 6 -131 -77 -125 -95 1
-5 -2 -6 -7 -2 -6 3 -41 -18 -78 -47 -65 -50 -130 -100 -330 -253 l-92 -70 0
-707 -1 -708 1000 0 1000 0 0 703 0 703 -27 26 c-16 14 -84 67 -153 119 -69
52 -127 97 -130 100 -3 3 -43 34 -90 69 -47 35 -109 84 -138 107 -29 24 -58
40 -64 37 -6 -4 -8 -3 -5 3 3 5 -8 20 -25 33 -22 16 -32 19 -38 10 -5 -8 -10
-9 -14 -2 -3 6 -2 12 4 14 15 5 -161 142 -181 141 -11 -1 -20 2 -20 8 -1 5 -2
13 -3 18 0 4 -17 21 -36 37 -19 16 -28 20 -20 10z m114 -105 c-2 -3 -12 3 -22
13 -16 17 -16 18 5 5 12 -7 20 -15 17 -18z m-334 1 c0 -10 -6 -27 -14 -37 -13
-18 -13 -17 -13 9 0 20 2 24 8 15 6 -10 9 -8 9 9 0 12 2 22 5 22 3 0 5 -8 5
-18z m-76 -72 c-22 -9 -29 -6 -20 9 4 6 14 7 23 4 15 -6 14 -7 -3 -13z m-49
-30 c-10 -11 -20 -18 -23 -16 -5 6 21 35 32 36 5 0 1 -9 -9 -20z m-43 -27 c-6
-2 -9 -10 -6 -15 4 -7 2 -8 -5 -4 -13 9 -5 26 12 25 9 0 8 -2 -1 -6z"/>
<path d="M3443 3297 c-3 -6 -1 -7 5 -3 8 5 12 0 12 -13 0 -12 5 -21 10 -21 6
0 10 11 10 23 0 24 -25 33 -37 14z"/>
<path d="M3873 3260 c0 -25 2 -35 4 -22 2 12 2 32 0 45 -2 12 -4 2 -4 -23z"/>
<path d="M3010 3286 c0 -2 8 -10 18 -17 15 -13 16 -12 3 4 -13 16 -21 21 -21
13z"/>
<path d="M1480 3271 c0 -5 -9 -13 -20 -16 -11 -4 -18 -10 -15 -15 3 -5 -1 -10
-7 -13 -7 -2 -11 -7 -8 -10 3 -3 20 8 37 23 18 16 28 32 23 35 -6 3 -10 2 -10
-4z"/>
<path d="M3470 3220 c-1 -23 -2 -23 -10 -5 l-9 20 -1 -20 c-1 -11 -3 -30 -4
-42 -2 -13 -2 -23 -1 -23 1 0 11 14 24 30 16 23 19 35 12 48 -9 15 -11 14 -11
-8z"/>
<path d="M4121 3204 c0 -11 3 -14 6 -6 3 7 2 16 -1 19 -3 4 -6 -2 -5 -13z"/>
<path d="M1290 3195 c-11 -13 -10 -14 4 -9 9 3 16 10 16 15 0 13 -6 11 -20 -6z"/>
<path d="M3182 3196 c7 -8 15 -12 17 -11 5 6 -10 25 -20 25 -5 0 -4 -6 3 -14z"/>
<path d="M1324 3186 c-10 -8 -17 -17 -14 -19 3 -3 14 1 24 9 11 7 17 16 15 19
-3 3 -14 -2 -25 -9z"/>
<path d="M4133 3175 c-3 -9 -3 -18 -1 -21 3 -3 8 4 11 16 6 23 -1 27 -10 5z"/>
</g>
</svg>
